SplineFontDB: 3.0
FontName: OCRB-Regular
FullName: OCR B Regular
FamilyName: OCRB
Weight: Regular
Copyright: Matthew Skala (2011); based on code by Norbert Schwarz (1986, 2011)
Version: 2
ItalicAngle: 0
UnderlinePosition: 0
UnderlineWidth: 0
Ascent: 800
Descent: 200
InvalidEm: 0
sfntRevision: 0x00020000
LayerCount: 2
Layer: 0 0 "Back" 1
Layer: 1 0 "Fore" 0
XUID: [1021 104 26715473 7826850]
StyleMap: 0x0000
FSType: 0
OS2Version: 3
OS2_WeightWidthSlopeOnly: 0
OS2_UseTypoMetrics: 0
CreationTime: 1479273984
ModificationTime: 1553119866
PfmFamily: 17
TTFWeight: 400
TTFWidth: 5
LineGap: 90
VLineGap: 0
Panose: 2 0 5 9 0 0 0 0 0 0
OS2TypoAscent: 800
OS2TypoAOffset: 0
OS2TypoDescent: -200
OS2TypoDOffset: 0
OS2TypoLinegap: 90
OS2WinAscent: 938
OS2WinAOffset: 0
OS2WinDescent: 336
OS2WinDOffset: 0
HheadAscent: 938
HheadAOffset: 0
HheadDescent: -336
HheadDOffset: 0
OS2SubXSize: 650
OS2SubYSize: 700
OS2SubXOff: 0
OS2SubYOff: 140
OS2SupXSize: 650
OS2SupYSize: 700
OS2SupXOff: 0
OS2SupYOff: 480
OS2StrikeYSize: 49
OS2StrikeYPos: 258
OS2CapHeight: 701
OS2XHeight: 534
OS2Vendor: 'PfEd'
OS2CodePages: 00000001.00000000
OS2UnicodeRanges: 000000af.00000068.00000000.00000000
Lookup: 3 0 0 "'aalt' Access All Alternates in Latin lookup 0" { "'aalt' Access All Alternates in Latin lookup 0 subtable"  } ['aalt' ('DFLT' <'dflt' > 'latn' <'dflt' > ) ]
Lookup: 1 0 0 "'ss01' Style Set 1 in Latin lookup 1" { "'ss01' Style Set 1 in Latin lookup 1 subtable"  } ['ss01' ('DFLT' <'dflt' > 'latn' <'dflt' > ) ]
Lookup: 1 0 0 "'ss02' Style Set 2 in Latin lookup 2" { "'ss02' Style Set 2 in Latin lookup 2 subtable"  } ['ss02' ('DFLT' <'dflt' > 'latn' <'dflt' > ) ]
Lookup: 1 0 0 "'ss03' Style Set 3 in Latin lookup 3" { "'ss03' Style Set 3 in Latin lookup 3 subtable"  } ['ss03' ('DFLT' <'dflt' > 'latn' <'dflt' > ) ]
Lookup: 1 0 0 "'ss04' Style Set 4 in Latin lookup 4" { "'ss04' Style Set 4 in Latin lookup 4 subtable"  } ['ss04' ('DFLT' <'dflt' > 'latn' <'dflt' > ) ]
DEI: 91125

StartChar: Gamma
Encoding: 915 915 1
Width: 723
GlyphClass: 2
Flags: MW
HStem: 1 21G<177.5 204.5> 493 220<549 563 563 576.5 191 577> 613 100<241 513 241 241>
VStem: 141 100<51 613> 513 100<543 613 613 613>
LayerCount: 2
Fore
SplineSet
141 51 m 2xb8
 141 663 l 2
 141 690 164 713 191 713 c 2xb8
 563 713 l 2
 590 713 613 690 613 663 c 2
 613 543 l 2
 613 516 591 493 563 493 c 0xd8
 535 493 513 515 513 543 c 2
 513 613 l 1
 241 613 l 1
 241 51 l 2
 241 23 218 1 191 1 c 0
 164 1 141 24 141 51 c 2xb8
EndSplineSet
Validated: 1
EndChar

StartChar: Delta
Encoding: 8710 8710 2
Width: 723
GlyphClass: 2
Flags: MW
HStem: -10 100<177 468 258 468 258 534> 687 20G<352 374>
LayerCount: 2
Fore
SplineSet
140 40 m 1
 314 670 l 2
 319 691 341 707 363 707 c 0
 385 707 405 690 411 670 c 2
 585 40 l 1
 585 13 561 -10 534 -10 c 2
 191 -10 l 2
 163 -10 140 15 140 40 c 1
258 90 m 1
 468 90 l 1
 363 470 l 1
 258 90 l 1
EndSplineSet
Validated: 1
EndChar

StartChar: Theta
Encoding: 920 920 3
Width: 723
GlyphClass: 2
Flags: MW
HStem: -13 100<312 413.5 312 443.5> 304 100<292.5 420 306 420> 621 100<352.5 415>
VStem: 116 100<354 362 362 363 302 428.5> 256 214<340.5 367.5 340.5 368> 510 100<354 410>
CounterMasks: 1 fc
LayerCount: 2
Fore
SplineSet
116 354 m 2
 116 362 l 2
 116 495 165 614 244 679 c 0
 274 704 323 721 363 721 c 0
 523 721 610 533 610 354 c 0
 608 183 524 -13 363 -13 c 0
 204 -13 116 183 116 354 c 2
216 354 m 2
 216 250 261 87 363 87 c 0
 464 87 510 250 510 354 c 0
 510 466 467 621 363 621 c 0
 342 621 320 614 306 600 c 0
 247 555 216 458 216 363 c 2
 216 354 l 2
256 354 m 0
 256 382 278 404 306 404 c 2
 420 404 l 2
 448 404 470 381 470 354 c 0
 470 327 447 304 420 304 c 2
 306 304 l 2
 279 304 256 326 256 354 c 0
EndSplineSet
Validated: 1
EndChar

StartChar: Lambda
Encoding: 923 923 4
Width: 723
GlyphClass: 2
Flags: MW
HStem: 687 20G<351.5 375.5>
VStem: 141 158<26.5 47.5 26.5 51> 427 157<26.5 47.5>
LayerCount: 2
Fore
SplineSet
141 40 m 0
 141 62 157 82 178 88 c 1
 314 668 l 2
 319 690 340 707 363 707 c 0
 388 707 407 689 412 668 c 2
 545 88 l 1
 567 82 584 64 584 40 c 0
 584 12 561 -10 534 -10 c 2
 477 -10 l 2
 450 -10 427 13 427 40 c 0
 427 55 434 69 446 78 c 1
 363 435 l 1
 280 78 l 1
 292 69 299 55 299 40 c 0
 299 13 276 -10 249 -10 c 2
 191 -10 l 2
 164 -10 141 13 141 40 c 0
EndSplineSet
Validated: 1
EndChar

StartChar: Xi
Encoding: 926 926 5
Width: 723
GlyphClass: 2
Flags: MW
HStem: 1 100<160.5 551 174 551> 316 100<220 491 234 491> 601 100<160.5 551 174 551>
LayerCount: 2
Fore
SplineSet
124 51 m 0
 124 78 146 101 174 101 c 2
 551 101 l 2
 579 101 601 79 601 51 c 0
 601 23 578 1 551 1 c 2
 174 1 l 2
 147 1 124 24 124 51 c 0
124 651 m 0
 124 678 146 701 174 701 c 2
 551 701 l 2
 579 701 601 679 601 651 c 0
 601 623 578 601 551 601 c 2
 174 601 l 2
 147 601 124 624 124 651 c 0
184 366 m 0
 184 393 207 416 234 416 c 2
 491 416 l 2
 518 416 541 394 541 366 c 0
 541 338 519 316 491 316 c 2
 234 316 l 2
 206 316 184 339 184 366 c 0
EndSplineSet
Validated: 1
EndChar

StartChar: Pi
Encoding: 928 928 6
Width: 723
GlyphClass: 2
Flags: MW
HStem: 613 100<241 484 241 241>
VStem: 141 100<40 613> 484 100<40 613 613 613>
LayerCount: 2
Fore
SplineSet
113 663 m 0
 113 691 136 713 163 713 c 2
 563 713 l 2
 590 713 613 690 613 663 c 0
 613 643 601 626 584 618 c 1
 584 40 l 2
 584 12 561 -10 534 -10 c 0
 507 -10 484 13 484 40 c 2
 484 613 l 1
 241 613 l 1
 241 40 l 2
 241 12 218 -10 191 -10 c 0
 164 -10 141 13 141 40 c 2
 141 618 l 1
 124 626 113 643 113 663 c 0
EndSplineSet
Validated: 1
EndChar

StartChar: Sigma
Encoding: 931 931 7
Width: 723
GlyphClass: 2
Flags: MW
HStem: 1 100<195.5 506 280 506 280 551> 1 129<541.5 551> 573 128<541 551 551 565> 601 100<280 506 280 280>
LayerCount: 2
Fore
SplineSet
159 51 m 0x80
 159 57 160 63 162 69 c 2
 267 351 l 1
 162 634 l 2
 160 639 159 645 159 651 c 0
 159 679 181 701 209 701 c 2x90
 551 701 l 2
 579 701 601 679 601 651 c 2
 601 623 l 2
 601 595 579 573 551 573 c 0x20
 531 573 514 585 506 601 c 1
 280 601 l 1
 367 369 l 2
 369 363 370 357 370 351 c 0
 370 345 369 339 367 334 c 2
 280 101 l 1
 506 101 l 1x90
 514 118 532 130 551 130 c 0
 578 130 601 108 601 80 c 2
 601 51 l 2
 601 23 578 1 551 1 c 2x40
 209 1 l 2
 182 1 159 23 159 51 c 0x80
EndSplineSet
Validated: 1
EndChar

StartChar: Upsilon
Encoding: 933 933 8
Width: 723
GlyphClass: 2
Flags: MW
HStem: 580 98<156 291.5 265.5 277 277 281 445 445 445 449>
VStem: 313 100<37 514>
LayerCount: 2
Fore
SplineSet
156 571 m 2
 156 580 l 1
 167 643 221 678 276 678 c 0
 307 678 338 667 363 644 c 1
 388 667 419 678 450 678 c 0
 505 678 558 643 569 580 c 1
 569 571 l 2
 569 544 547 521 520 521 c 0
 495 521 475 540 471 562 c 0
 469 573 460 580 449 580 c 2
 445 580 l 1
 419 574 413 543 413 514 c 2
 413 37 l 2
 413 10 390 -13 363 -13 c 0
 336 -13 313 9 313 37 c 2
 313 514 l 2
 313 543 307 574 281 580 c 1
 277 580 l 2
 254 580 254 549 241 536 c 0
 232 527 219 521 206 521 c 0
 179 521 156 543 156 571 c 2
EndSplineSet
Validated: 1
EndChar

StartChar: Phi
Encoding: 934 934 9
Width: 723
GlyphClass: 2
Flags: MW
HStem: -12 103<313 313 313 413>
VStem: 113 100<222.5 295.5 222.5 336.5> 284 157<-99.5 -76 604.5 627.5> 313 100<-41 -12 -41 -12 91 434 434 434 540 569> 513 100<222.5 304>
LayerCount: 2
Fore
SplineSet
113 263 m 0xd8
 113 410 186 513 313 540 c 1
 313 569 l 1xd8
 296 577 284 595 284 614 c 0
 284 641 306 664 334 664 c 2
 391 664 l 2
 419 664 441 642 441 614 c 0xe8
 441 594 429 577 413 569 c 1
 413 540 l 1
 540 516 613 403 613 263 c 0
 613 124 541 11 413 -12 c 1
 413 -41 l 1xd8
 430 -49 441 -66 441 -86 c 0
 441 -114 418 -136 391 -136 c 2
 334 -136 l 2
 307 -136 284 -113 284 -86 c 0xe8
 284 -66 296 -49 313 -41 c 1
 313 -12 l 1
 184 11 113 123 113 263 c 0xd8
213 263 m 0
 213 182 245 113 313 91 c 1
 313 434 l 1
 300 429 287 425 277 418 c 0
 235 388 213 328 213 263 c 0
413 91 m 1
 481 113 513 182 513 263 c 0
 513 345 480 414 413 436 c 1
 413 91 l 1
EndSplineSet
Validated: 1
EndChar

StartChar: Psi
Encoding: 936 936 10
Width: 723
GlyphClass: 2
Flags: MW
VStem: 313 100<-57 -8 -70.5 -8 116 586> 470 100<574 574>
LayerCount: 2
Fore
SplineSet
156 571 m 2
 156 599 178 621 206 621 c 0
 233 621 254 600 256 574 c 0
 261 477 268 383 276 290 c 0
 280 241 286 160 313 116 c 1
 313 586 l 2
 313 614 336 636 363 636 c 0
 390 636 413 613 413 586 c 2
 413 116 l 1
 440 161 446 242 450 290 c 0
 459 383 465 477 470 574 c 0
 472 600 493 621 520 621 c 0
 547 621 570 600 570 574 c 2
 570 571 l 1
 552 281 l 1
 540 163 509 27 413 -8 c 1
 413 -57 l 2
 413 -84 390 -107 363 -107 c 0
 336 -107 313 -85 313 -57 c 2
 313 -8 l 1
 180 36 177 265 164 425 c 1
 156 571 l 2
EndSplineSet
Validated: 1
EndChar

StartChar: Omega
Encoding: 8486 8486 11
Width: 723
GlyphClass: 2
Flags: MW
HStem: 721 100<329.5 407.5>
VStem: 114 99<549.5 563 563 569 549.5 601> 199 128<20.5 36.5 20.5 41.5> 399 128<34 41.5 20.5 46 20.5 46> 512 98<555.5 569>
LayerCount: 2
Fore
SplineSet
114 565 m 0xc0
 114 637 134 699 184 749 c 0
 231 797 296 821 363 821 c 0
 515 821 610 700 610 549 c 0xc8
 610 521 607 492 600 462 c 2
 509 72 l 1
 520 62 527 49 527 34 c 0
 527 7 504 -16 477 -16 c 2
 449 -16 l 2
 422 -16 399 6 399 34 c 2
 399 46 l 1x90
 503 488 l 2
 511 514 512 542 512 569 c 0
 508 655 452 721 363 721 c 0
 276 721 215 655 213 569 c 2
 213 563 l 2xc8
 213 536 218 510 223 484 c 0
 252 337 286 192 325 48 c 0
 326 44 327 39 327 34 c 0
 327 7 304 -16 277 -16 c 2
 249 -16 l 2
 222 -16 199 6 199 34 c 0xa0
 199 49 205 63 215 72 c 1
 181 202 151 333 125 465 c 0
 118 500 114 533 114 565 c 0xc0
EndSplineSet
Validated: 1
EndChar

StartChar: arrowup
Encoding: 8593 8593 12
Width: 723
GlyphClass: 2
Flags: MW
HStem: 681 20G<355.5 369.5>
VStem: 313 100<40 530>
LayerCount: 2
Fore
SplineSet
170 509 m 0
 170 522 175 534 185 544 c 2
 327 687 l 2
 336 696 348 701 363 701 c 0
 376 701 389 696 398 687 c 2
 541 544 l 2
 550 534 556 522 556 509 c 0
 556 482 534 459 506 459 c 0
 492 459 480 464 470 473 c 2
 413 530 l 1
 413 40 l 2
 413 13 390 -10 363 -10 c 0
 336 -10 313 12 313 40 c 2
 313 530 l 1
 255 473 l 2
 246 464 233 459 220 459 c 0
 192 459 170 482 170 509 c 0
EndSplineSet
Validated: 1
EndChar

StartChar: arrowdown
Encoding: 8595 8595 13
Width: 723
GlyphClass: 2
Flags: MW
HStem: 681 20G<349 377>
VStem: 313 100<161 651 161 665>
LayerCount: 2
Fore
SplineSet
170 183 m 0
 170 210 193 233 220 233 c 0
 233 233 246 228 255 218 c 2
 313 161 l 1
 313 651 l 2
 313 679 335 701 363 701 c 0
 391 701 413 678 413 651 c 2
 413 161 l 1
 470 218 l 2
 480 228 492 233 506 233 c 0
 533 233 556 210 556 183 c 0
 556 170 550 157 541 147 c 2
 398 5 l 2
 389 -5 376 -10 363 -10 c 0
 350 -10 337 -5 327 5 c 2
 185 147 l 2
 175 157 170 170 170 183 c 0
EndSplineSet
Validated: 1
EndChar

StartChar: quotesingle.alt
Encoding: 65537 -1 14
Width: 723
GlyphClass: 2
Flags: MW
HStem: 501 186<349.5 376.5>
VStem: 313 100<551 637 537.5 651>
LayerCount: 2
Fore
SplineSet
313 551 m 2
 313 637 l 2
 313 665 336 687 363 687 c 0
 390 687 413 664 413 637 c 2
 413 551 l 2
 413 524 390 501 363 501 c 0
 336 501 313 523 313 551 c 2
EndSplineSet
Validated: 1
EndChar

StartChar: exclamdown
Encoding: 161 161 15
Width: 723
GlyphClass: 2
Flags: MW
HStem: 299 145<326 386 340 386>
VStem: 290 146<349 394 335.5 407.5> 313 100<-171 220>
LayerCount: 2
Fore
SplineSet
290 349 m 2xc0
 290 394 l 2
 290 421 312 444 340 444 c 2
 386 444 l 2
 414 444 436 421 436 394 c 2
 436 349 l 2
 436 322 414 299 386 299 c 2
 340 299 l 2
 312 299 290 322 290 349 c 2xc0
313 -171 m 2xa0
 313 220 l 2
 313 248 336 270 363 270 c 0
 390 270 413 247 413 220 c 2
 413 -171 l 2
 413 -198 391 -221 363 -221 c 0
 335 -221 313 -199 313 -171 c 2xa0
EndSplineSet
Validated: 1
EndChar

StartChar: questiondown
Encoding: 191 191 16
Width: 723
GlyphClass: 2
Flags: MW
HStem: -221 100<346 372 372 381> 416 145<326 386 340 386>
VStem: 170 100<-46 -40 -40 -32 -32 -31 -67.5 5.5> 290 146<466 511 452.5 524.5> 313 100<203 286 167.5 300> 484 100<-35 -31 -31 -29 -29 -26 -90 -15.5>
LayerCount: 2
Fore
SplineSet
170 -32 m 2xec
 170 43 207 95 250 132 c 0
 275 153 313 176 313 203 c 2
 313 286 l 2
 313 314 336 336 363 336 c 0
 390 336 413 313 413 286 c 2
 413 203 l 2
 413 132 360 94 315 56 c 0
 290 34 270 12 270 -31 c 2
 270 -40 l 2
 270 -95 320 -121 372 -121 c 0
 427 -121 484 -91 484 -35 c 2
 484 -31 l 1
 484 -29 l 2
 484 -2 506 21 534 21 c 0
 561 21 582 0 584 -26 c 2
 584 -37 l 2
 584 -143 490 -217 381 -221 c 1
 372 -221 l 2
 259 -221 177 -151 170 -46 c 1
 170 -32 l 2xec
290 466 m 2xf4
 290 511 l 2
 290 538 312 561 340 561 c 2
 386 561 l 2
 414 561 436 538 436 511 c 2
 436 466 l 2
 436 439 414 416 386 416 c 2
 340 416 l 2
 312 416 290 439 290 466 c 2xf4
EndSplineSet
Validated: 1
EndChar

StartChar: dotlessi
Encoding: 305 305 17
Width: 723
GlyphClass: 2
Flags: MW
HStem: 424 100<217.5 411 231 361>
VStem: 181 280<460.5 474> 361 100<37 424 424 424>
LayerCount: 2
Fore
SplineSet
181 474 m 0xc0
 181 501 203 524 231 524 c 2
 411 524 l 2
 439 524 461 502 461 474 c 2xc0
 461 37 l 2
 461 9 438 -13 411 -13 c 0
 384 -13 361 10 361 37 c 2
 361 424 l 1xa0
 231 424 l 2
 204 424 181 447 181 474 c 0xc0
EndSplineSet
Validated: 1
EndChar

StartChar: dotlessj
Encoding: 567 567 18
Width: 723
GlyphClass: 2
Flags: MW
HStem: -179 100<189.5 212 189 222> 424 100<246.5 406 260 356>
VStem: 210 246<460.5 474> 356 100<57 424 424 424>
LayerCount: 2
Fore
SplineSet
153 -129 m 0xd0
 153 -101 175 -79 203 -79 c 0
 221 -79 238 -80 254 -80 c 0
 296 -80 329 -75 346 -37 c 0
 356 -15 356 25 356 57 c 2
 356 424 l 1xd0
 260 424 l 2
 233 424 210 447 210 474 c 0
 210 501 232 524 260 524 c 2
 406 524 l 2
 434 524 456 501 456 474 c 2xe0
 456 57 l 2
 456 -64 417 -154 317 -177 c 0
 311 -179 241 -179 203 -179 c 0
 176 -179 153 -157 153 -129 c 0xd0
EndSplineSet
Validated: 1
EndChar

StartChar: grave.alt
Encoding: 65538 -1 19
Width: 723
GlyphClass: 2
Flags: MW
HStem: 501 186<295.5 376.5>
VStem: 259 154<537.5 651>
LayerCount: 2
Fore
SplineSet
259 637 m 0
 259 665 282 687 309 687 c 0
 322 687 338 684 345 673 c 2
 405 578 l 2
 410 570 413 561 413 551 c 0
 413 524 390 501 363 501 c 0
 350 501 337 507 327 516 c 2
 266 610 l 2
 261 618 259 628 259 637 c 0
EndSplineSet
Validated: 1
EndChar

StartChar: acute
Encoding: 180 180 20
Width: 723
GlyphClass: 2
Flags: MW
HStem: 501 186<349.5 430.5>
VStem: 313 154<537 650.5>
LayerCount: 2
Fore
SplineSet
313 551 m 0
 313 561 316 570 321 578 c 2
 381 673 l 2
 390 683 404 687 417 687 c 0
 444 687 467 664 467 637 c 0
 467 628 464 618 459 610 c 2
 399 515 l 2
 390 506 376 501 363 501 c 0
 336 501 313 523 313 551 c 0
EndSplineSet
Validated: 1
EndChar

StartChar: caron
Encoding: 711 711 21
Width: 723
GlyphClass: 2
Flags: MW
HStem: 539 21G<356.5 369.5>
LayerCount: 2
Fore
SplineSet
113 888 m 0
 113 916 135 938 163 938 c 0
 176 938 189 934 198 924 c 2
 363 742 l 1
 528 923 l 2
 538 932 550 938 563 938 c 0
 591 938 613 915 613 888 c 0
 613 876 608 864 600 855 c 2
 398 552 l 2
 389 543 376 539 363 539 c 0
 350 539 336 543 326 552 c 2
 121 861 l 2
 116 869 113 879 113 888 c 0
EndSplineSet
Validated: 1
EndChar

StartChar: breve
Encoding: 728 728 22
Width: 723
GlyphClass: 2
Flags: MW
HStem: 653 100<323.5 402.5 323.5 428.5>
VStem: 113 100 513 100
LayerCount: 2
Fore
SplineSet
113 885 m 1
 113 888 l 2
 113 916 135 938 163 938 c 0
 190 938 211 917 213 892 c 0
 219 814 284 753 363 753 c 0
 442 753 507 814 513 892 c 0
 515 918 536 938 563 938 c 0
 591 938 613 915 613 888 c 2
 613 885 l 1
 603 754 494 653 363 653 c 0
 232 653 123 754 113 885 c 1
EndSplineSet
Validated: 1
EndChar

StartChar: macron
Encoding: 175 175 23
Width: 723
GlyphClass: 2
Flags: MW
HStem: 536 100<163 549 177 549>
LayerCount: 2
Fore
SplineSet
127 586 m 0
 127 613 150 636 177 636 c 2
 549 636 l 2
 575 636 599 613 599 586 c 0
 599 559 576 536 549 536 c 2
 177 536 l 2
 149 536 127 559 127 586 c 0
EndSplineSet
Validated: 1
EndChar

StartChar: dotaccent
Encoding: 729 729 24
Width: 723
GlyphClass: 2
Flags: MW
HStem: 476 145<326 386 340 386>
VStem: 290 146<526 571 512.5 584.5>
LayerCount: 2
Fore
SplineSet
290 526 m 2
 290 571 l 2
 290 598 312 621 340 621 c 2
 386 621 l 2
 414 621 436 598 436 571 c 2
 436 526 l 2
 436 499 414 476 386 476 c 2
 340 476 l 2
 312 476 290 499 290 526 c 2
EndSplineSet
Validated: 1
EndChar

StartChar: cedilla
Encoding: 184 184 25
Width: 723
GlyphClass: 2
Flags: MW
HStem: -336 100<351 354 354 356 349 354> -136 197<337.5 351 351 354 354 358>
VStem: 301 100<-42 11 -42 11 -42 24.5> 407 100<-199.5 -172>
LayerCount: 2
Fore
SplineSet
301 11 m 2
 301 38 323 61 351 61 c 0
 379 61 401 39 401 11 c 2
 401 -42 l 1
 462 -61 507 -117 507 -186 c 0
 507 -270 439 -336 356 -336 c 2
 349 -336 l 2
 323 -334 301 -313 301 -286 c 0
 301 -259 323 -236 351 -236 c 2
 354 -236 l 1
 356 -236 l 2
 384 -236 407 -213 407 -186 c 0
 407 -158 385 -136 358 -136 c 2
 354 -136 l 1
 351 -136 l 2
 324 -136 301 -113 301 -86 c 2
 301 11 l 2
EndSplineSet
Validated: 1
EndChar

StartChar: germandbls
Encoding: 223 223 26
Width: 723
GlyphClass: 2
Flags: MW
HStem: -7 100<435 438> 341 116<389.5 398> 670 100<303 399>
VStem: 136 100<37 457> 490 100<536 560 560 567 528.5 600.5> 513 100<187.5 216>
LayerCount: 2
Fore
SplineSet
136 37 m 2xf8
 136 457 l 2
 136 638 179 770 363 770 c 0
 493 770 590 693 590 567 c 2
 590 560 l 2xf8
 590 497 563 445 521 408 c 1
 579 369 611 299 613 218 c 0
 613 98 553 -4 438 -7 c 0
 412 -7 387 17 387 43 c 0
 387 69 410 91 435 93 c 0
 493 93 513 159 513 216 c 0xf4
 510 283 479 341 410 341 c 2
 407 341 l 1
 403 341 l 2
 376 341 353 363 353 391 c 2
 353 408 l 2
 353 435 372 457 398 457 c 0
 448 462 490 507 490 565 c 0
 490 636 435 670 363 670 c 0
 243 670 236 575 236 457 c 2
 236 37 l 2
 236 10 213 -13 186 -13 c 0
 159 -13 136 9 136 37 c 2xf8
EndSplineSet
Validated: 1
EndChar

StartChar: ae
Encoding: 230 230 27
Width: 723
GlyphClass: 2
Flags: MW
HStem: -14 98<553 569.5> 236 100<420 678 420 734 415 678> 444 100<180 215 548 554 554 591.5>
VStem: -36 100<132.5 191.5 132.5 239.5>
LayerCount: 2
Fore
SplineSet
-36 154 m 0
 -36 325 140 338 313 339 c 1
 311 369 305 400 283 420 c 0
 261 441 230 444 200 444 c 0
 160 444 122 431 91 406 c 0
 82 399 71 396 60 396 c 0
 32 396 10 419 10 446 c 0
 10 462 18 474 29 485 c 0
 78 523 138 544 200 544 c 0
 271 544 339 518 375 466 c 1
 415 513 473 542 548 544 c 2
 554 544 l 2
 707 544 784 434 784 286 c 0
 784 258 762 236 734 236 c 2
 415 236 l 1
 424 145 469 84 564 84 c 0
 575 84 586 84 598 86 c 0
 615 90 636 94 646 108 c 1
 646 110 l 1
 656 119 670 124 683 124 c 0
 711 124 734 101 734 74 c 0
 734 8 650 -14 571 -14 c 0
 535 -14 500 -10 475 -2 c 0
 452 6 431 17 413 31 c 1
 409 7 388 -13 363 -13 c 0
 336 -13 313 9 313 37 c 2
 313 46 l 1
 271 10 218 -16 153 -16 c 2
 139 -16 l 1
 55 -9 -36 54 -36 154 c 0
64 154 m 0
 64 111 112 86 147 84 c 2
 157 84 l 2
 232 84 282 150 313 200 c 1
 313 240 l 1
 291 241 268 242 244 242 c 0
 154 242 64 229 64 154 c 0
420 336 m 1
 678 336 l 1
 663 404 635 444 548 444 c 0
 478 444 436 398 420 336 c 1
EndSplineSet
Validated: 1
EndChar

StartChar: oe
Encoding: 339 339 28
Width: 723
GlyphClass: 2
Flags: MW
HStem: -14 98<553 569.5> 236 100<420 678 420 734 415 678> 444 100<112 207 81.5 213.5 548 554 554 591.5>
VStem: -87 100<213.5 312.5 213.5 342>
LayerCount: 2
Fore
SplineSet
-87 263 m 0
 -87 421 0 544 163 544 c 0
 251 544 318 506 360 446 c 1
 400 505 463 542 548 544 c 2
 554 544 l 2
 707 544 784 434 784 286 c 0
 784 258 762 236 734 236 c 2
 415 236 l 1
 424 145 469 84 564 84 c 0
 575 84 586 84 598 86 c 0
 617 90 635 95 646 110 c 0
 656 119 670 124 683 124 c 0
 711 124 734 101 734 74 c 0
 734 8 650 -14 571 -14 c 0
 535 -14 500 -10 475 -2 c 0
 427 15 390 44 363 84 c 1
 321 23 253 -16 163 -16 c 0
 2 -16 -87 105 -87 263 c 0
13 263 m 0
 13 164 61 84 163 84 c 0
 265 84 313 164 313 263 c 0
 313 363 264 444 163 444 c 0
 61 444 13 362 13 263 c 0
420 336 m 1
 678 336 l 1
 663 404 635 444 548 444 c 0
 478 444 436 398 420 336 c 1
EndSplineSet
Validated: 1
EndChar

StartChar: oslash
Encoding: 248 248 29
Width: 723
GlyphClass: 2
Flags: MW
HStem: -16 100<349 414.5 349 443> 444 100<312 377>
VStem: 113 100<248 312.5 248 342> 513 100<213.5 278.5>
LayerCount: 2
Fore
SplineSet
70 -23 m 0
 70 -11 74 0 82 9 c 2
 155 96 l 1
 127 142 113 200 113 263 c 0
 113 421 200 544 363 544 c 0
 417 544 462 530 499 505 c 1
 570 587 l 2
 580 596 592 601 606 601 c 0
 634 601 656 578 656 551 c 0
 656 539 651 528 644 519 c 2
 570 431 l 1
 598 385 613 327 613 263 c 0
 613 107 523 -16 363 -16 c 0
 308 -16 262 -2 224 23 c 1
 155 -58 l 2
 146 -68 133 -73 120 -73 c 0
 93 -73 70 -50 70 -23 c 0
213 263 m 0
 213 233 217 205 226 180 c 1
 435 427 l 1
 415 438 391 444 363 444 c 0
 261 444 213 362 213 263 c 0
290 101 m 1
 310 90 335 84 363 84 c 0
 466 84 513 164 513 263 c 0
 513 294 508 323 499 348 c 1
 290 101 l 1
EndSplineSet
Validated: 1
EndChar

StartChar: AE
Encoding: 198 198 30
Width: 723
GlyphClass: 2
Flags: MW
HStem: 1 100<370.5 706 421 706 421 706> 199 100<116 267 116 293 90 267> 316 100<365 706 365 365> 604 100<291 706 291 291>
LayerCount: 2
Fore
SplineSet
-55 39 m 1
 108 667 l 2
 113 687 132 704 156 704 c 2
 706 704 l 2
 734 704 756 681 756 654 c 0
 756 627 733 604 706 604 c 2
 291 604 l 1
 340 416 l 1
 706 416 l 2
 733 416 756 393 756 366 c 0
 756 339 734 316 706 316 c 2
 365 316 l 1
 421 101 l 1
 706 101 l 2
 734 101 756 78 756 51 c 0
 756 24 733 1 706 1 c 2
 383 1 l 2
 358 1 340 18 334 39 c 2
 293 199 l 1
 90 199 l 1
 46 27 l 2
 39 8 21 -10 -3 -10 c 0
 -29 -10 -55 14 -55 39 c 1
116 299 m 1
 267 299 l 1
 191 590 l 1
 116 299 l 1
EndSplineSet
Validated: 1
EndChar

StartChar: OE
Encoding: 338 338 31
Width: 723
GlyphClass: 2
Flags: MW
HStem: -13 100<115 196> 1 100<349.5 706 413 706 413 706> 316 100<413 657 413 657> 601 100<413 706 413 413> 621 100<147 195.5 83 218>
VStem: -81 100<354 363 363 366 302 447.5> 313 100<51 316 57 316 101 410>
LayerCount: 2
Fore
SplineSet
-81 354 m 2xa6
 -81 363 l 2
 -81 532 0 721 166 721 c 0xae
 225 721 275 695 313 653 c 1
 315 681 335 701 363 701 c 2
 706 701 l 2
 734 701 756 678 756 651 c 0
 756 624 733 601 706 601 c 2
 413 601 l 1
 413 416 l 1
 657 416 l 2
 684 416 706 393 706 366 c 0
 706 338 685 316 657 316 c 2
 413 316 l 1
 413 101 l 1
 706 101 l 2
 734 101 756 78 756 51 c 0
 756 24 733 1 706 1 c 2
 363 1 l 2x76
 336 1 313 23 313 51 c 2
 313 57 l 1
 275 14 226 -13 166 -13 c 0
 7 -13 -81 183 -81 354 c 2xa6
19 354 m 2
 19 250 64 87 166 87 c 0
 268 87 311 250 313 354 c 0
 313 466 270 621 166 621 c 0
 128 621 102 599 79 572 c 0
 38 523 19 443 19 366 c 2
 19 354 l 2
EndSplineSet
Validated: 1
EndChar

StartChar: Oslash
Encoding: 216 216 32
Width: 723
GlyphClass: 2
Flags: MW
HStem: -13 100<347 413.5 347 443.5> 621 100<345 379>
VStem: 116 100<354 362 362 365 336 428.5> 510 100<354 373>
LayerCount: 2
Fore
SplineSet
87 -20 m 0
 87 -11 90 -2 94 6 c 2
 168 127 l 1
 134 194 116 277 116 354 c 2
 116 362 l 2
 116 495 165 614 244 679 c 0
 274 704 323 721 363 721 c 0
 415 721 458 701 494 669 c 1
 552 764 l 2
 562 773 575 778 589 778 c 0
 616 778 638 756 638 728 c 0
 638 719 636 710 631 703 c 2
 559 582 l 1
 593 516 610 434 610 354 c 0
 608 183 524 -13 363 -13 c 0
 312 -13 268 7 232 41 c 1
 180 -46 l 2
 171 -59 155 -70 137 -70 c 0
 110 -70 87 -47 87 -20 c 0
216 354 m 2
 216 318 221 276 232 235 c 1
 442 582 l 1
 421 606 395 621 363 621 c 0
 327 621 296 597 279 573 c 1
 277 573 l 1
 237 522 216 443 216 365 c 2
 216 354 l 2
284 127 m 1
 305 103 331 87 363 87 c 0
 464 87 510 250 510 354 c 0
 510 392 505 435 494 476 c 1
 284 127 l 1
EndSplineSet
Validated: 1
EndChar

StartChar: exclam
Encoding: 33 33 34
Width: 723
GlyphClass: 2
Flags: MW
HStem: -73 146<326.5 386 340 386>
VStem: 290 146<-23 23 -36.5 36.5> 313 100<329 720>
LayerCount: 2
Fore
SplineSet
290 -23 m 2xc0
 290 23 l 2
 290 50 313 73 340 73 c 2
 386 73 l 2
 413 73 436 50 436 23 c 2
 436 -23 l 2
 436 -50 413 -73 386 -73 c 2
 340 -73 l 2
 313 -73 290 -50 290 -23 c 2xc0
313 329 m 2xa0
 313 720 l 2
 313 748 336 770 363 770 c 0
 390 770 413 747 413 720 c 2
 413 329 l 2
 413 302 391 279 363 279 c 0
 335 279 313 301 313 329 c 2xa0
EndSplineSet
Validated: 1
EndChar

StartChar: quotedbl.alt
Encoding: 65539 -1 35
Width: 723
GlyphClass: 2
Flags: MW
HStem: 596 174<255.5 282.5 255.5 283 443.5 470.5>
VStem: 219 100<646 720 632.5 734> 407 100<646 720 632.5 733.5>
LayerCount: 2
Fore
SplineSet
219 646 m 2
 219 720 l 2
 219 748 242 770 269 770 c 0
 296 770 319 747 319 720 c 2
 319 646 l 2
 319 619 297 596 269 596 c 0
 241 596 219 618 219 646 c 2
407 646 m 2
 407 720 l 2
 407 747 430 770 457 770 c 0
 484 770 507 747 507 720 c 2
 507 646 l 2
 507 619 485 596 457 596 c 0
 429 596 407 619 407 646 c 2
EndSplineSet
Validated: 1
EndChar

StartChar: numbersign
Encoding: 35 35 36
Width: 723
GlyphClass: 2
Flags: MW
HStem: 204 100<158 180 282 385 163 260 512 543> 461 100<169.5 238 183 216 183 318 340 443> 753 20G<314 339 541.5 567.5>
VStem: 350 99<26 48 26 48> 505 99<712 734>
LayerCount: 2
Fore
SplineSet
113 254 m 0
 113 282 135 304 163 304 c 2
 180 304 l 1
 216 461 l 1
 183 461 l 2
 156 461 133 483 133 511 c 0
 133 539 155 561 183 561 c 2
 238 561 l 1
 277 734 l 2
 282 755 302 773 326 773 c 0
 352 773 376 749 376 723 c 1
 340 561 l 1
 466 561 l 1
 505 734 l 2
 512 754 529 773 554 773 c 0
 581 773 604 751 604 723 c 2
 604 712 l 1
 570 561 l 1
 594 557 613 536 613 511 c 0
 613 484 590 461 563 461 c 2
 547 461 l 1
 512 304 l 1
 543 304 l 2
 571 304 593 281 593 254 c 0
 593 227 570 204 543 204 c 2
 489 204 l 1
 449 26 l 2
 444 5 423 -13 400 -13 c 0
 373 -13 350 10 350 37 c 2
 350 48 l 1
 385 204 l 1
 260 204 l 1
 220 26 l 2
 215 4 195 -13 171 -13 c 0
 145 -13 121 10 121 37 c 1
 158 204 l 1
 133 207 113 228 113 254 c 0
282 304 m 1
 408 304 l 1
 443 461 l 1
 318 461 l 1
 282 304 l 1
EndSplineSet
Validated: 1
EndChar

StartChar: dollar
Encoding: 36 36 37
Width: 723
GlyphClass: 2
Flags: MW
HStem: 42 100<313 313> 539 21G<530.5 553.5> 613 102<313 313 313 413>
VStem: 116 99<510.5 561 510.5 594> 313 100<40 42 26.5 42 145 325 456 613 715 720> 513 100<207.5 258>
LayerCount: 2
Fore
SplineSet
113 177 m 0
 113 205 136 227 163 227 c 0
 207 227 212 174 243 158 c 0
 262 148 287 144 313 142 c 1
 313 353 l 1
 215 381 116 418 116 539 c 0
 116 649 207 703 313 715 c 1
 313 720 l 2
 313 748 336 770 363 770 c 0
 390 770 413 747 413 720 c 2
 413 715 l 1
 490 705 543 671 580 617 c 0
 586 609 590 599 590 588 c 0
 590 562 567 539 540 539 c 0
 521 539 510 549 499 560 c 0
 478 590 451 606 413 613 c 1
 413 426 l 1
 515 395 613 356 613 234 c 0
 613 124 522 58 413 42 c 1
 413 40 l 2
 413 13 390 -10 363 -10 c 0
 336 -10 313 12 313 40 c 2
 313 42 l 1
 218 50 146 83 116 158 c 0
 113 164 113 171 113 177 c 0
215 535 m 0
 215 486 276 470 313 456 c 1
 313 613 l 1
 262 606 215 587 215 535 c 0
413 145 m 1
 466 155 513 181 513 234 c 0
 513 282 462 308 413 325 c 1
 413 145 l 1
EndSplineSet
Validated: 1
EndChar

StartChar: percent
Encoding: 37 37 38
Width: 723
GlyphClass: 2
Flags: MW
HStem: -13 100<477 483 483 493.5 477 521.5> 176 100<471 494.5> 484 100<234 243 243 254 234 282> 673 100<231.5 254.5>
VStem: 113 100<628 632 632 639.5 619.5 671> 273 100<628 639> 353 100<131 135 135 142.5 124 174> 513 100<131 142>
LayerCount: 2
Fore
SplineSet
113 43 m 0xf9
 113 52 115 61 120 68 c 2
 526 753 l 2
 536 763 550 767 563 767 c 0
 590 767 613 744 613 717 c 0
 613 708 610 699 606 692 c 2
 207 17 l 2
 198 4 180 -8 163 -8 c 0
 136 -8 113 15 113 43 c 0xf9
113 628 m 2
 113 632 l 2
 113 710 168 773 243 773 c 0
 320 773 373 708 373 628 c 0xfd
 371 552 321 484 243 484 c 0
 158 484 113 553 113 628 c 2
213 628 m 0
 213 611 218 588 234 584 c 1
 243 584 l 2
 265 584 273 609 273 628 c 0
 273 650 266 673 243 673 c 0
 220 673 213 651 213 628 c 0
353 131 m 2xfb
 353 135 l 2
 353 213 408 276 483 276 c 0
 560 276 613 211 613 131 c 0
 611 55 560 -13 483 -13 c 0
 399 -13 353 55 353 131 c 2xfb
453 131 m 0
 453 117 458 89 474 89 c 0
 475 89 476 88 477 87 c 2
 483 87 l 2
 504 87 513 112 513 131 c 0
 513 153 506 176 483 176 c 0
 459 176 453 154 453 131 c 0
EndSplineSet
Validated: 1
EndChar

StartChar: ampersand
Encoding: 38 38 39
Width: 723
GlyphClass: 2
Flags: MW
HStem: -13 100<335 353 335 363> 673 100<310 358>
VStem: 113 100<166 235 166 252> 141 100<563 618 563 646> 424 100<610 641.5> 512 101<286 321.5 267.5 322>
LayerCount: 2
Fore
SplineSet
113 205 m 0xe4
 113 299 156 359 210 407 c 1
 174 456 141 510 141 588 c 0
 141 704 222 773 340 773 c 0
 436 773 524 719 524 622 c 0xd8
 524 505 415 440 348 388 c 1
 491 189 l 1
 505 223 512 264 512 308 c 0
 512 336 536 359 563 359 c 0
 590 359 613 335 613 308 c 0
 613 227 594 154 557 99 c 1
 568 83 587 66 587 40 c 0
 587 13 564 -10 537 -10 c 0
 508 -10 498 11 485 28 c 1
 444 2 393 -13 333 -13 c 0
 201 -10 113 71 113 205 c 0xe4
213 205 m 0xe0
 213 127 258 90 335 87 c 0
 371 87 401 95 426 110 c 1
 270 324 l 1
 242 291 213 265 213 205 c 0xe0
241 588 m 0xd8
 241 538 264 501 288 467 c 1
 327 495 365 523 393 557 c 0
 406 573 424 598 424 622 c 0
 424 661 376 673 340 673 c 0
 280 673 241 648 241 588 c 0xd8
EndSplineSet
Validated: 1
EndChar

StartChar: quotesingle
Encoding: 39 39 40
Width: 391
GlyphClass: 2
Flags: HMW
VStem: 109 175<722.5 734>
LayerCount: 2
Fore
SplineSet
109 720 m 2
 109 748 132 770 159 770 c 2
 241 770 l 1
 263 766 284 746 284 723 c 0
 284 722 283 721 283 720 c 2
 262 428 l 2
 257 404 239 387 213 387 c 2
 179 387 l 2
 152 387 131 405 129 430 c 2
 109 720 l 2
EndSplineSet
Substitution2: "'ss03' Style Set 3 in Latin lookup 3 subtable" quotesingle.alt
AlternateSubs2: "'aalt' Access All Alternates in Latin lookup 0 subtable" quotesingle quotesingle.alt
EndChar

StartChar: parenleft
Encoding: 40 40 41
Width: 472
GlyphClass: 2
Flags: HMW
HStem: 753 20G<332 350.5>
VStem: 99 100<371 372 372 377 300.5 377>
LayerCount: 2
Fore
SplineSet
99 371 m 2
 99 377 l 2
 101 568 195 685 309 764 c 0
 317 770 327 773 337 773 c 0
 364 773 387 751 387 723 c 0
 387 707 379 689 365 682 c 0
 272 619 201 531 199 377 c 2
 199 372 l 2
 199 229 276 136 365 79 c 0
 377 71 387 54 387 37 c 0
 387 9 364 -13 337 -13 c 0
 327 -13 317 -10 309 -5 c 0
 197 70 99 187 99 371 c 2
EndSplineSet
EndChar

StartChar: parenright
Encoding: 41 41 42
Width: 465
GlyphClass: 2
Flags: HMW
HStem: 753 20G<122.5 141.5>
VStem: 275 100<302.5 452.5>
LayerCount: 2
Fore
SplineSet
86 37 m 0
 86 53 96 71 108 79 c 0
 200 139 275 228 275 377 c 0
 275 528 199 620 108 682 c 1
 95 686 86 710 86 723 c 0
 86 750 109 773 136 773 c 0
 147 773 156 770 164 764 c 0
 279 685 375 569 375 377 c 0
 375 190 278 72 164 -5 c 0
 156 -10 146 -13 136 -13 c 0
 109 -13 86 10 86 37 c 0
EndSplineSet
EndChar

StartChar: asterisk
Encoding: 42 42 43
Width: 666
GlyphClass: 2
Flags: HMW
VStem: 287 100<449 600 449 614>
LayerCount: 2
Fore
SplineSet
87 446 m 0
 87 473 111 498 138 498 c 1
 287 449 l 1
 287 600 l 2
 287 628 310 650 337 650 c 0
 364 650 387 627 387 600 c 2
 387 449 l 1
 521 493 l 2
 526 495 531 496 537 496 c 0
 564 496 587 473 587 446 c 0
 587 422 572 405 552 398 c 2
 435 359 l 1
 512 228 l 2
 516 220 518 212 518 203 c 0
 518 175 496 153 468 153 c 0
 455 153 441 157 432 166 c 2
 348 310 l 1
 241 166 l 2
 231 157 219 153 205 153 c 0
 177 153 155 176 155 203 c 0
 155 214 159 224 165 233 c 2
 255 354 l 1
 121 398 l 2
 102 406 87 422 87 446 c 0
EndSplineSet
EndChar

StartChar: plus
Encoding: 43 43 44
Width: 664
GlyphClass: 2
Flags: HMW
HStem: 330 100<122.5 286 136 286 386 536>
VStem: 286 100<151 330 430 608>
LayerCount: 2
Fore
SplineSet
86 380 m 0
 86 408 109 430 136 430 c 2
 286 430 l 1
 286 608 l 2
 286 636 308 658 336 658 c 0
 364 658 386 635 386 608 c 2
 386 430 l 1
 536 430 l 2
 563 430 586 407 586 380 c 0
 586 353 563 330 536 330 c 2
 386 330 l 1
 386 151 l 2
 386 124 363 101 336 101 c 0
 309 101 286 123 286 151 c 2
 286 330 l 1
 136 330 l 2
 109 330 86 352 86 380 c 0
EndSplineSet
EndChar

StartChar: comma
Encoding: 44 44 45
Width: 537
GlyphClass: 2
Flags: HMW
HStem: -184 21G<99 113 113 141>
LayerCount: 2
Fore
SplineSet
63 -134 m 0
 63 -125 65 -117 69 -109 c 2
 247 193 l 2
 256 203 271 207 284 207 c 2
 395 207 l 2
 422 207 445 185 445 157 c 2
 445 126 l 2
 445 113 440 100 431 91 c 2
 177 -170 l 2
 167 -180 154 -184 141 -184 c 2
 113 -184 l 2
 85 -184 63 -162 63 -134 c 0
EndSplineSet
EndChar

StartChar: hyphen
Encoding: 45 45 46
Width: 700
GlyphClass: 2
Flags: HMW
HStem: 316 128<140 554 154 554>
LayerCount: 2
Fore
SplineSet
104 366 m 2
 104 394 l 2
 104 422 126 444 154 444 c 2
 554 444 l 2
 582 444 604 421 604 394 c 2
 604 366 l 2
 604 339 582 316 554 316 c 2
 154 316 l 2
 126 316 104 338 104 366 c 2
EndSplineSet
EndChar

StartChar: period
Encoding: 46 46 47
Width: 449
GlyphClass: 2
Flags: HMW
HStem: -10 197<141.5 298 155 298>
VStem: 105 243<40 137 26 150.5>
LayerCount: 2
Fore
SplineSet
105 40 m 2
 105 137 l 2
 105 164 128 187 155 187 c 2
 298 187 l 2
 325 187 348 165 348 137 c 2
 348 40 l 2
 348 12 325 -10 298 -10 c 2
 155 -10 l 2
 128 -10 105 13 105 40 c 2
EndSplineSet
EndChar

StartChar: slash
Encoding: 47 47 48
Width: 537
GlyphClass: 2
Flags: HMW
HStem: 753 20G<400 423.5>
LayerCount: 2
Fore
SplineSet
80 37 m 0
 80 44 81 50 84 56 c 2
 364 742 l 2
 370 759 390 773 410 773 c 0
 437 773 460 750 460 723 c 0
 460 716 459 710 456 704 c 2
 176 18 l 2
 170 1 150 -13 130 -13 c 0
 103 -13 80 9 80 37 c 0
EndSplineSet
EndChar

StartChar: zero
Encoding: 48 48 49
Width: 706
GlyphClass: 2
Flags: HMW
HStem: -13 100<358 363 399.5 402> 673 100<315.5 366>
VStem: 108 100<292.5 381 292.5 458.5> 508 100<343 389 389 450.5>
LayerCount: 2
Fore
SplineSet
108 343 m 0
 108 574 126 773 358 773 c 0
 588 773 608 573 608 343 c 0
 608 173 564 0 402 -13 c 0
 397 -13 392 -14 387 -14 c 0
 377 -14 368 -13 358 -13 c 0
 158 -13 108 148 108 343 c 0
208 343 m 0
 208 242 221 108 310 89 c 0
 320 87 342 87 358 87 c 2
 380 87 l 2
 495 87 508 235 508 343 c 2
 508 389 l 2
 508 512 503 652 405 671 c 0
 396 673 374 673 358 673 c 0
 273 673 240 638 223 569 c 0
 208 507 208 419 208 343 c 0
EndSplineSet
EndChar

StartChar: one
Encoding: 49 49 50
Width: 505
GlyphClass: 2
Flags: HMW
VStem: 284 100<40 638 638 638>
LayerCount: 2
Fore
SplineSet
72 566 m 0
 72 579 77 593 87 601 c 2
 270 758 l 2
 279 766 290 770 302 770 c 2
 334 770 l 2
 361 770 384 747 384 720 c 2
 384 40 l 2
 384 13 361 -10 334 -10 c 0
 307 -10 284 12 284 40 c 2
 284 638 l 1
 155 528 l 2
 146 520 134 516 122 516 c 0
 94 516 72 539 72 566 c 0
EndSplineSet
EndChar

StartChar: two
Encoding: 50 50 51
Width: 653
GlyphClass: 2
Flags: HMW
HStem: 1 100<143.5 509 208 509 208 509> 673 100<296 363>
VStem: 453 100<546.5 595>
LayerCount: 2
Fore
SplineSet
96 670 m 0
 96 685 104 705 117 712 c 0
 178 755 237 773 329 773 c 0
 456 773 553 688 553 560 c 0
 553 428 441 359 356 305 c 0
 277 255 214 217 208 101 c 1
 509 101 l 2
 537 101 559 78 559 51 c 0
 559 24 536 1 509 1 c 2
 157 1 l 2
 130 1 107 24 107 51 c 2
 107 72 l 2
 107 111 108 154 117 185 c 0
 143 276 222 338 302 389 c 0
 347 418 399 451 426 487 c 0
 442 508 453 533 453 560 c 0
 453 630 397 673 329 673 c 0
 263 673 218 662 175 630 c 0
 166 625 156 621 146 621 c 0
 120 621 96 644 96 670 c 0
EndSplineSet
EndChar

StartChar: three
Encoding: 51 51 52
Width: 671
GlyphClass: 2
Flags: HMW
HStem: -13 100<271 343 271 371> 658 100<129.5 506 143 422>
VStem: 481 100<231 240 240 242 226 292>
LayerCount: 2
Fore
SplineSet
90 69 m 0
 90 97 113 119 140 119 c 0
 147 119 153 117 159 115 c 0
 202 96 248 87 294 87 c 0
 392 87 476 132 481 231 c 1
 481 240 l 2
 481 344 379 384 277 384 c 0
 250 384 227 407 227 434 c 0
 227 445 230 457 238 465 c 2
 422 658 l 1
 143 658 l 2
 116 658 93 681 93 708 c 0
 93 736 115 758 143 758 c 2
 506 758 l 2
 533 758 556 735 556 708 c 2
 556 673 l 2
 556 660 550 649 541 640 c 2
 382 472 l 1
 494 443 581 366 581 242 c 2
 581 226 l 1
 575 75 448 -13 294 -13 c 0
 234 -13 90 -4 90 69 c 0
EndSplineSet
EndChar

StartChar: four
Encoding: 52 52 53
Width: 655
GlyphClass: 2
Flags: HMW
HStem: 164 100<120.5 381 192 381 192 381 481 534>
VStem: 381 100<40 164 264 380>
LayerCount: 2
Fore
SplineSet
84 214 m 2
 84 257 l 2
 84 265 85 272 89 278 c 2
 306 741 l 2
 312 757 332 770 351 770 c 0
 378 770 401 747 401 720 c 0
 401 712 399 705 396 699 c 2
 192 264 l 1
 381 264 l 1
 381 380 l 2
 381 407 404 430 431 430 c 0
 458 430 481 407 481 380 c 2
 481 264 l 1
 534 264 l 2
 562 264 584 241 584 214 c 0
 584 187 561 164 534 164 c 2
 481 164 l 1
 481 40 l 2
 481 13 458 -10 431 -10 c 0
 404 -10 381 13 381 40 c 2
 381 164 l 1
 134 164 l 2
 107 164 84 186 84 214 c 2
EndSplineSet
EndChar

StartChar: five
Encoding: 53 53 54
Width: 625
GlyphClass: 2
Flags: HMW
HStem: -13 100<129.5 195.5 129.5 196.5> 413 100<220.5 231 231 263.5> 658 100<224 471 224 224>
VStem: 427 100<246 276.5>
LayerCount: 2
Fore
SplineSet
93 37 m 0
 93 65 116 87 143 87 c 0
 248 87 362 110 410 195 c 0
 420 214 427 235 427 257 c 0
 427 296 420 335 394 363 c 0
 360 402 296 413 231 413 c 0
 210 413 188 412 167 410 c 2
 163 410 l 2
 137 410 113 431 113 457 c 2
 113 460 l 1
 127 711 l 2
 129 738 150 758 177 758 c 2
 471 758 l 2
 499 758 521 735 521 708 c 0
 521 682 498 658 471 658 c 2
 224 658 l 1
 216 513 l 1
 231 513 l 2
 406 513 527 430 527 257 c 0
 527 181 486 117 442 77 c 0
 361 5 250 -13 143 -13 c 0
 116 -13 93 9 93 37 c 0
EndSplineSet
EndChar

StartChar: six
Encoding: 54 54 55
Width: 677
GlyphClass: 2
Flags: HMW
HStem: -13 100<300 389.5 300 418.5> 387 100<334 395>
VStem: 95 100<229 240 240 278 184.5 290> 495 100<185 279>
LayerCount: 2
Fore
SplineSet
95 229 m 2
 95 240 l 2
 95 340 127 418 165 483 c 0
 226 584 305 670 383 755 c 0
 392 765 406 770 419 770 c 0
 446 770 469 747 469 720 c 0
 469 707 464 695 456 686 c 0
 396 621 334 555 283 480 c 1
 302 485 323 487 345 487 c 0
 500 487 595 386 595 229 c 0
 595 86 492 -13 345 -13 c 0
 198 -13 98 84 95 229 c 2
195 229 m 0
 195 140 255 87 345 87 c 0
 434 87 495 141 495 229 c 0
 495 329 445 387 345 387 c 0
 248 387 195 327 195 229 c 0
EndSplineSet
EndChar

StartChar: seven
Encoding: 55 55 56
Width: 656
GlyphClass: 2
Flags: HMW
HStem: 658 100<111.5 525 125 465>
VStem: 201 100<26.5 93 26.5 102>
LayerCount: 2
Fore
SplineSet
75 708 m 0
 75 736 97 758 125 758 c 2
 525 758 l 2
 553 758 575 735 575 708 c 0
 575 648 548 593 515 543 c 0
 469 476 409 418 368 347 c 0
 315 254 301 146 301 40 c 0
 301 13 278 -10 251 -10 c 0
 224 -10 201 12 201 40 c 0
 201 164 220 289 281 396 c 0
 323 470 384 530 432 600 c 0
 444 618 457 637 465 658 c 1
 125 658 l 2
 98 658 75 681 75 708 c 0
EndSplineSet
EndChar

StartChar: eight
Encoding: 56 56 57
Width: 675
GlyphClass: 2
Flags: HMW
HStem: -13 100<342 346.5 380 388 380 380> 673 100<319 365>
VStem: 92 99<163 241.5 163 249.5> 126 100<566.5 625.5 566.5 653> 458 100<566.5 625.5> 492 100<169 239.5>
LayerCount: 2
Fore
SplineSet
92 200 m 0xe4
 92 299 161 371 238 423 c 1
 176 460 126 512 126 600 c 0
 126 706 236 773 342 773 c 0
 447 773 558 705 558 600 c 0xd8
 558 512 509 462 447 423 c 1
 523 371 592 298 592 200 c 0
 592 95 506 -2 388 -13 c 1
 380 -13 l 2
 376 -14 372 -14 368 -14 c 0
 360 -14 351 -13 342 -13 c 0
 198 -13 92 73 92 200 c 0xe4
191 200 m 0xe4
 191 126 260 87 342 87 c 2
 363 87 l 2
 433 87 492 138 492 200 c 0
 492 279 409 335 344 369 c 1
 281 337 191 283 191 200 c 0xe4
226 600 m 0xd8
 226 533 285 506 342 481 c 1
 399 506 458 533 458 600 c 0
 458 651 388 673 342 673 c 0
 296 673 226 651 226 600 c 0xd8
EndSplineSet
EndChar

StartChar: nine
Encoding: 57 57 58
Width: 679
GlyphClass: 2
Flags: HMW
HStem: 273 100<293.5 350> 673 100<297.5 384.5>
VStem: 90 100<472.5 557 472.5 584.5> 490 100<501.5 563.5>
LayerCount: 2
Fore
SplineSet
90 514 m 0
 90 655 200 773 340 773 c 0
 480 773 590 672 590 514 c 0
 590 409 551 333 509 260 c 0
 452 164 382 77 299 3 c 0
 290 -5 278 -10 266 -10 c 0
 239 -10 216 12 216 40 c 0
 216 55 222 67 232 77 c 0
 297 136 354 203 401 277 c 1
 381 274 360 273 340 273 c 0
 187 273 90 380 90 514 c 0
190 514 m 0
 190 431 247 373 340 373 c 0
 401 373 463 387 480 442 c 0
 486 465 490 489 490 514 c 0
 490 613 429 673 340 673 c 0
 255 673 190 600 190 514 c 0
EndSplineSet
EndChar

StartChar: colon
Encoding: 58 58 59
Width: 439
GlyphClass: 2
Flags: HMW
HStem: -10 180<154.5 276 168 276> 353 180<154 276 168 276>
VStem: 118 208<40 120 26.5 134 403 483>
LayerCount: 2
Fore
SplineSet
118 40 m 2
 118 120 l 2
 118 148 141 170 168 170 c 2
 276 170 l 2
 303 170 326 147 326 120 c 2
 326 40 l 2
 326 13 303 -10 276 -10 c 2
 168 -10 l 2
 141 -10 118 12 118 40 c 2
118 403 m 2
 118 483 l 2
 118 511 141 533 168 533 c 2
 276 533 l 2
 303 533 326 510 326 483 c 2
 326 403 l 2
 326 376 304 353 276 353 c 2
 168 353 l 2
 140 353 118 375 118 403 c 2
EndSplineSet
EndChar

StartChar: semicolon
Encoding: 59 59 60
Width: 493
GlyphClass: 2
Flags: HMW
HStem: 353 180<216 338 230 338>
VStem: 180 208<403 483 389.5 497>
LayerCount: 2
Fore
SplineSet
57 -129 m 0
 57 -122 58 -114 61 -108 c 2
 185 145 l 2
 191 160 208 173 230 173 c 2
 341 173 l 2
 368 173 391 150 391 123 c 0
 391 119 392 115 392 111 c 0
 392 108 391 105 389 103 c 2
 185 -164 l 2
 176 -173 163 -179 150 -179 c 2
 107 -179 l 2
 80 -179 57 -157 57 -129 c 0
180 403 m 2
 180 483 l 2
 180 511 203 533 230 533 c 2
 338 533 l 2
 365 533 388 510 388 483 c 2
 388 403 l 2
 388 376 366 353 338 353 c 2
 230 353 l 2
 202 353 180 375 180 403 c 2
EndSplineSet
EndChar

StartChar: less
Encoding: 60 60 61
Width: 673
GlyphClass: 2
Flags: HW
LayerCount: 2
Fore
SplineSet
97 344 m 2
 88 353 84 367 84 380 c 0
 84 393 88 407 97 416 c 2
 506 687 l 2
 514 693 524 696 534 696 c 0
 561 696 584 673 584 646 c 0
 584 632 579 620 569 610 c 2
 224 380 l 1
 569 150 l 2
 579 140 584 128 584 114 c 0
 584 87 561 64 534 64 c 0
 524 64 514 67 506 73 c 2
 97 344 l 2
EndSplineSet
EndChar

StartChar: equal
Encoding: 61 61 62
Width: 697
GlyphClass: 2
Flags: HMW
HStem: 216 100<138 552 152 552> 444 100<138.5 552 152 552>
LayerCount: 2
Fore
SplineSet
102 266 m 0
 102 294 125 316 152 316 c 2
 552 316 l 2
 579 316 602 293 602 266 c 0
 602 239 580 216 552 216 c 2
 152 216 l 2
 124 216 102 238 102 266 c 0
102 494 m 0
 102 522 124 544 152 544 c 2
 552 544 l 2
 580 544 602 521 602 494 c 0
 602 467 579 444 552 444 c 2
 152 444 l 2
 125 444 102 466 102 494 c 0
EndSplineSet
EndChar

StartChar: greater
Encoding: 62 62 63
Width: 673
GlyphClass: 2
Flags: HW
LayerCount: 2
Fore
SplineSet
96 114 m 0
 96 128 101 140 110 150 c 2
 455 380 l 1
 110 610 l 2
 101 620 96 632 96 646 c 0
 96 674 119 696 146 696 c 0
 156 696 165 693 174 687 c 2
 582 416 l 2
 592 407 596 393 596 380 c 0
 596 367 593 351 582 344 c 2
 174 73 l 2
 165 67 156 64 146 64 c 0
 119 64 96 86 96 114 c 0
EndSplineSet
EndChar

StartChar: question
Encoding: 63 63 64
Width: 582
GlyphClass: 2
Flags: HMW
HStem: -67 146<268.5 328 282 328> 616 98<289 294>
VStem: 83 100<520 523 523 526 526 529 529 531 509 590> 232 146<-17 29 -30.5 42.5> 255 100<277.5 294.5 277.5 327.5> 398 100<537 560.5>
LayerCount: 2
Fore
SplineSet
83 520 m 2xec
 83 529 l 2
 83 651 192 714 298 714 c 0
 399 714 498 657 498 537 c 0
 496 472 457 404 421 366 c 0
 403 346 379 332 363 310 c 0
 359 305 355 298 355 291 c 0
 355 264 332 241 305 241 c 0
 278 241 255 263 255 291 c 0
 255 364 312 394 348 434 c 0
 368 455 398 503 398 537 c 0
 398 584 359 604 319 613 c 0
 309 613 299 616 289 616 c 0
 237 608 183 589 183 531 c 2
 183 526 l 1
 183 523 l 2
 183 495 161 473 133 473 c 0
 106 473 85 495 83 520 c 2xec
232 -17 m 2xf4
 232 29 l 2
 232 56 255 79 282 79 c 2
 328 79 l 2
 355 79 378 56 378 29 c 2
 378 -17 l 2
 378 -44 355 -67 328 -67 c 2
 282 -67 l 2
 255 -67 232 -44 232 -17 c 2xf4
EndSplineSet
EndChar

StartChar: at
Encoding: 64 64 65
Width: 707
GlyphClass: 2
Flags: HMW
HStem: -18 99<444.5 454> 321 100<246 250 250 264.5 246 265> 618 100<308.5 352 343 352 352 355>
VStem: 105 100<163 188 188 194 194 211 163 252> 328 100<136 263 263 263> 505 100<203 229 229 343>
CounterMasks: 1 1c
LayerCount: 2
Fore
SplineSet
105 194 m 0
 105 310 131 421 246 421 c 2
 250 421 l 2
 279 421 314 408 335 394 c 1
 344 409 361 419 378 419 c 0
 405 419 428 395 428 369 c 2
 428 126 l 2
 429 102 435 81 454 81 c 0
 502 85 505 144 505 203 c 2
 505 229 l 1
 505 343 l 2
 505 478 492 618 355 618 c 2
 343 618 l 2
 274 618 216 595 207 535 c 0
 205 512 183 493 158 493 c 0
 130 493 108 515 108 543 c 2
 108 550 l 1
 124 657 218 715 343 718 c 2
 352 718 l 2
 556 718 605 546 605 343 c 2
 605 229 l 2
 605 130 600 69 549 20 c 0
 523 -4 486 -18 450 -18 c 0
 418 -18 386 -7 365 20 c 1
 339 -4 304 -19 258 -19 c 2
 250 -19 l 1
 139 -15 105 77 105 194 c 0
205 188 m 2
 205 138 206 84 254 81 c 2
 260 81 l 2
 299 81 315 108 328 136 c 1
 328 263 l 1
 314 290 284 321 246 321 c 0
 207 321 205 256 205 211 c 2
 205 194 l 1
 205 188 l 2
EndSplineSet
EndChar

StartChar: A
Encoding: 65 65 66
Width: 678
GlyphClass: 2
Flags: HMW
HStem: 199 100<265 417 265 442 239 417> 687 20G<307 375 375 385.5>
LayerCount: 2
Fore
SplineSet
97 40 m 2
 97 53 l 1
 258 670 l 2
 263 690 284 707 307 707 c 2
 375 707 l 2
 396 707 416 694 421 676 c 2
 586 40 l 1
 586 14 562 -10 535 -10 c 0
 512 -10 492 7 487 27 c 2
 442 199 l 1
 239 199 l 1
 195 27 l 2
 190 7 170 -10 147 -10 c 0
 120 -10 97 12 97 40 c 2
265 299 m 1
 417 299 l 1
 341 591 l 1
 265 299 l 1
EndSplineSet
EndChar

StartChar: B
Encoding: 66 66 67
Width: 729
GlyphClass: 2
Flags: HMW
HStem: 1 100<158.5 343 222 343 222 343> 316 100<222 372 222 372> 601 100<222 343 222 222>
VStem: 122 100<101 101 101 316 416 601> 508 99<504 511 511 511> 522 100<180 211 180 211>
LayerCount: 2
Fore
SplineSet
122 51 m 2xf4
 122 651 l 2
 122 679 144 701 172 701 c 2
 343 701 l 2
 401 701 460 700 511 672 c 0
 572 637 607 570 607 502 c 0xf8
 607 452 588 402 547 366 c 1
 594 329 621 272 622 211 c 0
 622 149 595 89 545 51 c 0
 489 7 415 1 343 1 c 2
 172 1 l 2
 145 1 122 23 122 51 c 2xf4
222 101 m 1
 343 101 l 2
 430 101 522 119 522 211 c 0xf4
 520 288 452 316 372 316 c 2
 222 316 l 1
 222 101 l 1
222 416 m 1
 372 416 l 2
 440 416 508 434 508 504 c 2
 508 511 l 1xf8
 500 590 430 601 343 601 c 2
 222 601 l 1
 222 416 l 1
EndSplineSet
EndChar

StartChar: C
Encoding: 67 67 68
Width: 609
GlyphClass: 2
Flags: HMW
HStem: -13 100<277 355 277 381> 527 21G<432.5 470.5> 616 100<332 342>
VStem: 101 100<344 353 353 362 344 444.5> 408 98
LayerCount: 2
Fore
SplineSet
101 342 m 2
 101 353 l 2
 101 536 152 711 330 716 c 0
 419 716 489 663 506 587 c 1
 506 577 l 2
 506 550 484 527 457 527 c 0
 408 527 415 579 387 600 c 0
 371 612 352 616 332 616 c 0
 222 609 201 479 201 362 c 2
 201 344 l 2
 203 230 217 87 337 87 c 0
 373 87 402 104 408 135 c 0
 412 157 433 176 457 176 c 0
 484 176 506 153 506 126 c 2
 506 117 l 1
 493 41 425 -13 337 -13 c 0
 152 -13 103 163 101 342 c 2
EndSplineSet
EndChar

StartChar: D
Encoding: 68 68 69
Width: 650
GlyphClass: 2
Flags: HMW
HStem: 1 21G<158.5 191> 681 20G<158 247>
VStem: 122 100<103 103 103 598> 445 100<259 375 243.5 384>
LayerCount: 2
Fore
SplineSet
122 51 m 2
 122 651 l 2
 122 678 144 701 172 701 c 0
 322 701 410 636 475 549 c 0
 515 495 545 419 545 331 c 0
 545 156 433 35 284 8 c 0
 247 1 210 1 172 1 c 0
 145 1 122 24 122 51 c 2
222 103 m 1
 355 115 445 187 445 331 c 0
 445 437 390 513 326 559 c 0
 297 580 264 593 222 598 c 1
 222 103 l 1
EndSplineSet
EndChar

StartChar: E
Encoding: 69 69 70
Width: 662
GlyphClass: 2
Flags: HMW
HStem: 1 100<158.5 514 222 514 222 514> 316 100<222 466 222 466> 601 100<222 514 222 222>
VStem: 122 100<101 316 416 601>
LayerCount: 2
Fore
SplineSet
122 51 m 2
 122 651 l 2
 122 679 144 701 172 701 c 2
 514 701 l 2
 542 701 564 679 564 651 c 0
 564 623 541 601 514 601 c 2
 222 601 l 1
 222 416 l 1
 466 416 l 2
 493 416 516 393 516 366 c 0
 516 339 494 316 466 316 c 2
 222 316 l 1
 222 101 l 1
 514 101 l 2
 542 101 564 79 564 51 c 0
 564 23 541 1 514 1 c 2
 172 1 l 2
 145 1 122 23 122 51 c 2
EndSplineSet
EndChar

StartChar: F
Encoding: 70 70 71
Width: 577
GlyphClass: 2
Flags: HMW
HStem: 316 100<222 401 222 401> 601 100<222 446 222 222>
VStem: 122 100<40 316 416 601>
LayerCount: 2
Fore
SplineSet
122 40 m 2
 122 651 l 2
 122 678 144 701 172 701 c 2
 446 701 l 2
 474 701 496 679 496 651 c 0
 496 623 473 601 446 601 c 2
 222 601 l 1
 222 416 l 1
 401 416 l 2
 427 416 451 393 451 366 c 0
 451 339 428 316 401 316 c 2
 222 316 l 1
 222 40 l 2
 222 13 199 -10 172 -10 c 0
 145 -10 122 13 122 40 c 2
EndSplineSet
EndChar

StartChar: G
Encoding: 71 71 72
Width: 688
GlyphClass: 2
Flags: HMW
HStem: -16 103<342 391> 279 100<347 524 361 474> 613 103<347 370 327 387>
VStem: 99 101<332 404.5 332 410> 311 263<315 329 50.5 343> 474 100<105 279 279 279>
LayerCount: 2
Fore
SplineSet
99 353 m 0xf4
 99 467 129 580 190 641 c 0
 230 682 291 716 363 716 c 0
 377 716 391 715 405 712 c 0
 463 704 516 674 553 629 c 0
 561 620 565 609 565 597 c 0
 565 570 542 547 515 547 c 0
 499 547 487 554 477 565 c 0
 450 596 408 613 366 613 c 0
 328 613 290 599 262 570 c 0
 218 526 200 446 200 363 c 0
 200 301 210 238 228 188 c 0
 252 120 307 87 377 87 c 0
 407 87 440 93 474 105 c 1
 474 279 l 1xf4
 361 279 l 2
 333 279 311 301 311 329 c 0
 311 357 334 379 361 379 c 2
 524 379 l 2
 551 379 574 356 574 329 c 2xf8
 574 74 l 2
 574 27 505 7 469 -2 c 0
 437 -11 406 -16 376 -16 c 0
 302 -16 234 11 190 57 c 0
 130 119 99 236 99 353 c 0xf4
EndSplineSet
EndChar

StartChar: H
Encoding: 72 72 73
Width: 691
GlyphClass: 2
Flags: HMW
HStem: 310 100<222 465 222 465> 693 20G<158.5 185.5 501.5 528.5>
VStem: 122 100<40 310 410 663> 465 100<40 310 310 310 410 663>
LayerCount: 2
Fore
SplineSet
122 40 m 2
 122 663 l 2
 122 690 145 713 172 713 c 0
 199 713 222 691 222 663 c 2
 222 410 l 1
 465 410 l 1
 465 663 l 2
 465 690 488 713 515 713 c 0
 542 713 565 691 565 663 c 2
 565 40 l 2
 565 12 542 -10 515 -10 c 0
 488 -10 465 13 465 40 c 2
 465 310 l 1
 222 310 l 1
 222 40 l 2
 222 12 199 -10 172 -10 c 0
 145 -10 122 13 122 40 c 2
EndSplineSet
EndChar

StartChar: I
Encoding: 73 73 74
Width: 566
GlyphClass: 2
Flags: HMW
HStem: 1 100<128.5 235 142 235 335 428> 601 100<148.5 408 162 235 335 335 335 408>
VStem: 235 100<101 601 101 601>
LayerCount: 2
Fore
SplineSet
92 51 m 0
 92 78 114 101 142 101 c 2
 235 101 l 1
 235 601 l 1
 162 601 l 2
 135 601 112 624 112 651 c 0
 112 678 134 701 162 701 c 2
 408 701 l 2
 436 701 458 678 458 651 c 0
 458 624 435 601 408 601 c 2
 335 601 l 1
 335 101 l 1
 428 101 l 2
 456 101 478 78 478 51 c 0
 478 24 455 1 428 1 c 2
 142 1 l 2
 115 1 92 24 92 51 c 0
EndSplineSet
EndChar

StartChar: J
Encoding: 74 74 75
Width: 574
GlyphClass: 2
Flags: HMW
HStem: -16 102<260 296.5 257 322.5> 693 20G<387.5 414.5>
VStem: 91 100<141 168.5 141 171> 351 100<172 174 174 663>
LayerCount: 2
Fore
SplineSet
91 165 m 0
 91 177 92 188 95 201 c 0
 100 224 118 241 144 241 c 0
 172 241 193 219 193 191 c 2
 193 182 l 2
 192 176 191 171 191 166 c 0
 191 116 236 86 278 86 c 0
 315 86 351 110 351 166 c 2
 351 663 l 2
 351 690 374 713 401 713 c 0
 428 713 451 690 451 663 c 2
 451 174 l 2
 451 170 452 165 452 161 c 0
 452 68 371 -16 274 -16 c 0
 246 -16 216 -9 186 7 c 0
 136 35 91 92 91 165 c 0
EndSplineSet
EndChar

StartChar: K
Encoding: 75 75 76
Width: 695
GlyphClass: 2
Flags: HMW
HStem: 693 20G<158.5 185.5 528.5 548.5>
VStem: 122 100<40 315 416 663>
LayerCount: 2
Fore
SplineSet
122 40 m 2
 122 663 l 2
 122 690 145 713 172 713 c 0
 199 713 222 690 222 663 c 2
 222 416 l 1
 499 698 l 2
 509 707 522 713 535 713 c 0
 562 713 585 690 585 663 c 0
 585 650 579 637 570 628 c 2
 313 365 l 1
 593 75 l 2
 602 65 608 53 608 40 c 0
 608 13 585 -10 558 -10 c 0
 545 -10 532 -5 522 5 c 2
 222 315 l 1
 222 40 l 2
 222 13 199 -10 172 -10 c 0
 145 -10 122 13 122 40 c 2
EndSplineSet
EndChar

StartChar: L
Encoding: 76 76 77
Width: 680
GlyphClass: 2
Flags: HMW
HStem: 1 100<158.5 544 222 544 222 544> 693 20G<158.5 185.5>
VStem: 122 100<101 663 101 663 101 676.5>
LayerCount: 2
Fore
SplineSet
122 51 m 2
 122 663 l 2
 122 690 145 713 172 713 c 0
 199 713 222 691 222 663 c 2
 222 101 l 1
 544 101 l 2
 572 101 594 78 594 51 c 0
 594 24 571 1 544 1 c 2
 172 1 l 2
 145 1 122 24 122 51 c 2
EndSplineSet
EndChar

StartChar: M
Encoding: 77 77 78
Width: 748
GlyphClass: 2
Flags: HMW
HStem: 693 20G<172 249 249 260.5 495 572 572 585.5>
VStem: 122 100<40 579> 522 100<40 579 579 579>
LayerCount: 2
Fore
SplineSet
122 40 m 2
 122 663 l 2
 122 691 145 713 172 713 c 2
 249 713 l 2
 272 713 291 696 297 677 c 2
 372 430 l 1
 447 677 l 2
 452 697 472 713 495 713 c 2
 572 713 l 2
 599 713 622 690 622 663 c 2
 622 40 l 2
 622 13 599 -10 572 -10 c 0
 545 -10 522 12 522 40 c 2
 522 579 l 1
 420 243 l 2
 413 224 396 207 372 207 c 0
 350 207 330 223 324 243 c 2
 222 579 l 1
 222 40 l 2
 222 13 199 -10 172 -10 c 0
 145 -10 122 12 122 40 c 2
EndSplineSet
EndChar

StartChar: N
Encoding: 78 78 79
Width: 720
GlyphClass: 2
Flags: HMW
HStem: 693 20G<172 209 209 219 530.5 557>
VStem: 122 100<40 520> 494 100<182 663>
LayerCount: 2
Fore
SplineSet
122 40 m 2
 122 663 l 2
 122 690 145 713 172 713 c 2
 209 713 l 2
 229 713 246 700 254 684 c 2
 494 182 l 1
 494 663 l 2
 494 691 517 713 544 713 c 0
 570 713 594 690 594 663 c 2
 594 40 l 2
 594 13 570 -10 544 -10 c 2
 506 -10 l 2
 486 -10 469 2 461 18 c 2
 222 520 l 1
 222 40 l 2
 222 13 199 -10 172 -10 c 0
 145 -10 122 13 122 40 c 2
EndSplineSet
EndChar

StartChar: O
Encoding: 79 79 80
Width: 701
GlyphClass: 2
Flags: HMW
HStem: -13 100<295 396.5 295 426.5> 621 100<328 398>
VStem: 99 100<354 362 362 365 302 428.5> 493 100<354 410>
LayerCount: 2
Fore
SplineSet
99 354 m 2
 99 362 l 2
 99 495 148 614 227 679 c 0
 257 704 306 721 346 721 c 0
 506 721 593 533 593 354 c 0
 591 183 507 -13 346 -13 c 0
 187 -13 99 183 99 354 c 2
199 354 m 2
 199 250 244 87 346 87 c 0
 447 87 493 250 493 354 c 0
 493 466 450 621 346 621 c 0
 310 621 279 597 262 573 c 1
 260 573 l 1
 220 522 199 443 199 365 c 2
 199 354 l 2
EndSplineSet
EndChar

StartChar: P
Encoding: 80 80 81
Width: 698
GlyphClass: 2
Flags: HMW
HStem: 287 100<222 344 222 344> 601 100<222 344 222 222>
VStem: 122 100<40 287 387 601> 494 100<488 494 494 495 484 516.5>
LayerCount: 2
Fore
SplineSet
122 40 m 2
 122 651 l 2
 122 678 144 701 172 701 c 2
 344 701 l 2
 486 701 594 633 594 495 c 2
 594 484 l 2
 592 442 580 402 555 370 c 0
 507 306 424 287 344 287 c 2
 222 287 l 1
 222 40 l 2
 222 12 199 -10 172 -10 c 0
 145 -10 122 13 122 40 c 2
222 387 m 1
 344 387 l 2
 417 387 490 407 494 488 c 1
 494 494 l 2
 494 539 471 573 438 589 c 0
 409 601 376 601 344 601 c 2
 222 601 l 1
 222 387 l 1
EndSplineSet
EndChar

StartChar: Q
Encoding: 81 81 82
Width: 697
GlyphClass: 2
Flags: HMW
HStem: 32 100<331 348 331 358.5> 616 100<332 335 332 332>
VStem: 100 104<342.5 401 401 415> 476 95<349 433>
LayerCount: 2
Fore
SplineSet
100 379 m 0
 100 451 110 521 131 568 c 0
 162 641 230 712 330 716 c 1
 337 716 l 1
 341 716 l 2
 372 716 409 704 430 692 c 0
 523 642 571 506 571 371 c 0
 571 293 556 216 523 155 c 1
 588 71 l 2
 595 62 599 51 599 40 c 0
 599 13 575 -10 548 -10 c 0
 535 -10 521 -7 512 5 c 2
 458 75 l 1
 419 45 378 32 339 32 c 0
 248 32 164 101 131 181 c 0
 111 231 100 306 100 379 c 0
204 401 m 2
 204 275 211 161 305 136 c 0
 316 133 326 132 336 132 c 0
 360 132 380 140 398 153 c 1
 301 278 l 2
 294 287 290 297 290 309 c 0
 290 336 313 359 340 359 c 0
 354 359 368 355 377 344 c 2
 456 242 l 1
 469 281 476 326 476 372 c 0
 476 494 429 616 335 616 c 2
 332 616 l 2
 251 614 210 533 204 454 c 1
 204 401 l 2
EndSplineSet
EndChar

StartChar: R
Encoding: 82 82 83
Width: 664
GlyphClass: 2
Flags: HMW
HStem: 287 100<222 308 222 332> 601 100<222 330 222 222>
VStem: 122 100<40 287 387 601> 453 100<518.5 549.5>
LayerCount: 2
Fore
SplineSet
122 40 m 2
 122 651 l 2
 122 679 144 701 172 701 c 2
 336 701 l 1
 430 693 553 641 553 543 c 0
 553 432 515 335 417 299 c 1
 553 65 l 2
 558 57 559 49 559 40 c 0
 559 13 536 -10 509 -10 c 0
 496 -10 481 -6 472 4 c 2
 308 287 l 1
 222 287 l 1
 222 40 l 2
 222 13 199 -10 172 -10 c 0
 145 -10 122 12 122 40 c 2
222 387 m 1
 332 387 l 2
 361 387 392 391 414 410 c 0
 451 441 453 494 453 543 c 0
 453 556 436 566 422 573 c 0
 394 589 362 599 330 601 c 2
 222 601 l 1
 222 387 l 1
EndSplineSet
EndChar

StartChar: S
Encoding: 83 83 84
Width: 636
GlyphClass: 2
Flags: HMW
HStem: -15 101<283.5 313.5> 616 100<317 321 321 333.5>
VStem: 106 100<508.5 562.5 508.5 590.5> 432 100<174.5 219.5>
LayerCount: 2
Fore
SplineSet
100 153 m 1
 100 160 l 2
 100 187 123 210 150 210 c 0
 176 210 195 190 200 167 c 0
 207 112 257 86 310 86 c 0
 341 86 374 95 398 113 c 0
 420 131 432 160 432 189 c 0
 432 250 391 272 350 293 c 0
 247 345 106 384 106 537 c 0
 106 644 205 714 315 716 c 2
 321 716 l 2
 425 716 498 662 521 579 c 0
 522 575 523 570 523 566 c 0
 523 539 501 516 473 516 c 0
 425 516 425 570 398 593 c 0
 378 610 350 616 317 616 c 0
 265 613 206 588 206 537 c 0
 206 480 245 459 282 438 c 0
 388 385 532 347 532 189 c 0
 532 80 452 3 347 -12 c 0
 333 -14 320 -15 307 -15 c 0
 202 -15 112 55 100 153 c 1
EndSplineSet
EndChar

StartChar: T
Encoding: 84 84 85
Width: 648
GlyphClass: 2
Flags: HMW
HStem: 601 100<106.5 520 120 270 370 520 370 370>
VStem: 270 100<40 601>
LayerCount: 2
Fore
SplineSet
70 651 m 0
 70 679 92 701 120 701 c 2
 520 701 l 2
 548 701 570 678 570 651 c 0
 570 624 547 601 520 601 c 2
 370 601 l 1
 370 40 l 2
 370 13 347 -10 320 -10 c 0
 293 -10 270 12 270 40 c 2
 270 601 l 1
 120 601 l 2
 93 601 70 623 70 651 c 0
EndSplineSet
EndChar

StartChar: U
Encoding: 85 85 86
Width: 708
GlyphClass: 2
Flags: HMW
HStem: -13 100<335 375> 693 20G<150.5 177.5 522.5 549>
VStem: 114 100<211 663> 486 100<211 663>
LayerCount: 2
Fore
SplineSet
114 211 m 2
 114 663 l 2
 114 690 137 713 164 713 c 0
 191 713 214 690 214 663 c 2
 214 211 l 2
 214 170 229 130 263 107 c 0
 288 91 320 87 350 87 c 0
 433 87 486 134 486 211 c 2
 486 663 l 2
 486 691 509 713 536 713 c 0
 562 713 586 690 586 663 c 2
 586 211 l 2
 586 137 553 65 492 24 c 0
 450 -4 400 -13 350 -13 c 0
 300 -13 250 -4 208 24 c 0
 146 65 114 137 114 211 c 2
EndSplineSet
EndChar

StartChar: V
Encoding: 86 86 87
Width: 662
GlyphClass: 2
Flags: HMW
HStem: 693 20G<113.5 138.5 515 540.5>
LayerCount: 2
Fore
SplineSet
76 663 m 1
 76 690 100 713 127 713 c 0
 150 713 170 696 175 676 c 2
 327 105 l 1
 478 676 l 2
 485 696 503 713 527 713 c 0
 554 713 578 689 578 663 c 1
 409 27 l 2
 404 7 384 -10 361 -10 c 2
 293 -10 l 2
 269 -10 248 8 243 27 c 2
 76 663 l 1
EndSplineSet
EndChar

StartChar: W
Encoding: 87 87 88
Width: 716
GlyphClass: 2
Flags: HMW
HStem: 693 20G<142 169 542 568>
VStem: 105 100<663 663> 504 101<663 665 663 676.5>
LayerCount: 2
Fore
SplineSet
105 663 m 1
 105 665 l 2
 105 692 129 713 155 713 c 0
 183 713 204 689 205 663 c 0
 211 499 219 345 240 199 c 1
 299 403 l 2
 306 421 322 436 346 436 c 2
 363 436 l 2
 387 436 405 418 411 400 c 2
 469 206 l 1
 489 349 498 500 504 663 c 0
 504 690 529 713 555 713 c 0
 581 713 605 690 605 665 c 2
 605 663 l 1
 597 435 583 224 541 29 c 0
 537 9 516 -10 492 -10 c 0
 458 -10 423 11 415 37 c 2
 355 237 l 1
 294 26 l 2
 288 7 272 -10 246 -10 c 2
 218 -10 l 2
 192 -10 173 9 168 29 c 0
 125 225 113 435 105 663 c 1
EndSplineSet
EndChar

StartChar: X
Encoding: 88 88 89
Width: 656
GlyphClass: 2
Flags: HMW
HStem: 693 20G<141.5 161.5 493 516.5>
LayerCount: 2
Fore
SplineSet
99 40 m 0
 99 48 101 57 105 64 c 2
 266 360 l 1
 111 638 l 2
 107 646 105 654 105 663 c 0
 105 691 128 713 155 713 c 0
 168 713 182 708 191 699 c 2
 329 452 l 1
 459 687 l 2
 469 700 483 713 503 713 c 0
 530 713 553 690 553 663 c 0
 553 654 551 646 547 638 c 2
 392 360 l 1
 553 64 l 2
 557 57 559 48 559 40 c 0
 559 13 536 -10 509 -10 c 0
 496 -10 481 -6 471 4 c 1
 329 266 l 1
 193 16 l 2
 183 2 169 -10 149 -10 c 0
 122 -10 99 12 99 40 c 0
EndSplineSet
EndChar

StartChar: Y
Encoding: 89 89 90
Width: 603
GlyphClass: 2
Flags: HMW
HStem: 693 20G<107.5 131 466 488.5>
VStem: 248 100<40 319>
LayerCount: 2
Fore
SplineSet
71 663 m 0
 71 691 94 713 121 713 c 0
 141 713 156 701 165 686 c 2
 298 437 l 1
 431 686 l 2
 437 701 457 713 475 713 c 0
 502 713 525 690 525 663 c 0
 525 654 523 646 519 639 c 2
 348 319 l 1
 348 40 l 2
 348 13 325 -10 298 -10 c 0
 271 -10 248 12 248 40 c 2
 248 319 l 1
 77 639 l 2
 73 646 71 654 71 663 c 0
EndSplineSet
EndChar

StartChar: Z
Encoding: 90 90 91
Width: 629
GlyphClass: 2
Flags: HMW
HStem: 1 100<136.5 493 232 493 232 493> 601 100<139.5 459 153 377>
LayerCount: 2
Fore
SplineSet
100 51 m 0
 100 59 102 67 106 74 c 2
 377 601 l 1
 153 601 l 2
 126 601 103 624 103 651 c 0
 103 678 125 701 153 701 c 2
 459 701 l 2
 486 701 509 677 509 651 c 0
 509 643 507 635 503 628 c 2
 232 101 l 1
 493 101 l 2
 521 101 543 79 543 51 c 0
 543 23 520 1 493 1 c 2
 150 1 l 2
 123 1 100 24 100 51 c 0
EndSplineSet
EndChar

StartChar: bracketleft
Encoding: 91 91 92
Width: 598
GlyphClass: 2
Flags: HMW
HStem: -13 100<162.5 462 226 462 226 462> 673 100<226 462 226 226>
VStem: 126 100<87 673 87 723 87 736.5>
LayerCount: 2
Fore
SplineSet
126 37 m 2
 126 723 l 2
 126 750 149 773 176 773 c 2
 462 773 l 2
 489 773 512 750 512 723 c 0
 512 696 490 673 462 673 c 2
 226 673 l 1
 226 87 l 1
 462 87 l 2
 489 87 512 64 512 37 c 0
 512 10 489 -13 462 -13 c 2
 176 -13 l 2
 149 -13 126 10 126 37 c 2
EndSplineSet
EndChar

StartChar: backslash
Encoding: 92 92 93
Width: 535
GlyphClass: 2
Flags: HMW
HStem: 753 20G<113.5 137>
LayerCount: 2
Fore
SplineSet
77 723 m 0
 77 751 100 773 127 773 c 0
 147 773 166 758 173 742 c 2
 453 56 l 2
 456 50 457 44 457 37 c 0
 457 10 434 -13 407 -13 c 0
 387 -13 368 1 361 18 c 2
 81 704 l 2
 78 710 77 716 77 723 c 0
EndSplineSet
EndChar

StartChar: bracketright
Encoding: 93 93 94
Width: 594
GlyphClass: 2
Flags: HMW
HStem: -13 100<123.5 373 137 373 137 423> 673 100<123 423 137 373>
VStem: 373 100<87 673 673 673>
LayerCount: 2
Fore
SplineSet
87 37 m 0
 87 64 110 87 137 87 c 2
 373 87 l 1
 373 673 l 1
 137 673 l 2
 109 673 87 696 87 723 c 0
 87 750 110 773 137 773 c 2
 423 773 l 2
 450 773 473 750 473 723 c 2
 473 37 l 2
 473 10 450 -13 423 -13 c 2
 137 -13 l 2
 110 -13 87 10 87 37 c 0
EndSplineSet
EndChar

StartChar: circumflex
Encoding: 710 710 95
Width: 723
GlyphClass: 2
Flags: W
LayerCount: 2
Fore
SplineSet
113 417 m 0
 113 427 116 437 121 445 c 2
 326 753 l 2
 336 763 349 767 362 767 c 0
 375 767 391 764 399 753 c 2
 604 445 l 2
 610 437 613 427 613 417 c 0
 613 390 590 367 563 367 c 0
 550 367 537 372 527 382 c 2
 362 556 l 1
 198 382 l 2
 189 372 176 367 163 367 c 0
 136 367 113 389 113 417 c 0
EndSplineSet
Validated: 1
EndChar

StartChar: underscore
Encoding: 95 95 96
Width: 760
GlyphClass: 2
Flags: HMW
HStem: -236 129<164.5 578 178 578>
LayerCount: 2
Fore
SplineSet
128 -157 m 2
 128 -129 151 -107 178 -107 c 2
 578 -107 l 2
 605 -107 628 -130 628 -157 c 2
 628 -186 l 2
 628 -213 605 -236 578 -236 c 2
 178 -236 l 2
 151 -236 128 -214 128 -186 c 2
 128 -157 l 2
EndSplineSet
EndChar

StartChar: grave
Encoding: 96 96 97
Width: 351
GlyphClass: 2
Flags: HMW
HStem: 584 186<134.5 215.5>
VStem: 98 154<620.5 734>
LayerCount: 2
Fore
SplineSet
98 720 m 0
 98 748 121 770 148 770 c 0
 161 770 177 767 184 756 c 2
 244 661 l 2
 249 653 252 644 252 634 c 0
 252 607 229 584 202 584 c 0
 189 584 175 589 165 599 c 2
 105 693 l 2
 100 701 98 710 98 720 c 0
EndSplineSet
Substitution2: "'ss01' Style Set 1 in Latin lookup 1 subtable" grave.alt
AlternateSubs2: "'aalt' Access All Alternates in Latin lookup 0 subtable" grave grave.alt
EndChar

StartChar: a
Encoding: 97 97 98
Width: 660
GlyphClass: 2
Flags: HMW
HStem: -16 100<277 284 270 285> 242 97 444 100<311 346>
VStem: 95 100<132.5 191.5 132.5 240> 444 100<37 45 45 45 200 240 240 240>
LayerCount: 2
Fore
SplineSet
95 154 m 0
 95 326 270 338 444 339 c 1
 441 369 436 400 414 420 c 0
 392 441 361 444 331 444 c 0
 291 444 253 431 222 406 c 0
 213 399 202 396 191 396 c 0
 163 396 141 418 141 446 c 0
 141 460 148 479 160 485 c 0
 209 523 269 544 331 544 c 0
 386 544 442 531 482 494 c 0
 522 456 544 402 544 347 c 2
 544 37 l 2
 544 10 521 -13 494 -13 c 0
 467 -13 444 9 444 37 c 2
 444 45 l 1
 401 10 348 -16 284 -16 c 2
 270 -16 l 1
 186 -9 95 54 95 154 c 0
195 154 m 0
 195 111 243 86 277 84 c 2
 285 84 l 2
 360 84 412 148 444 200 c 1
 444 240 l 1
 422 241 399 242 375 242 c 0
 285 242 195 229 195 154 c 0
EndSplineSet
EndChar

StartChar: b
Encoding: 98 98 99
Width: 716
GlyphClass: 2
Flags: HMW
HStem: -16 99<379.5 389.5 343.5 463> 442 97<373 379.5 341 420.5> 753 20G<159.5 186.5>
VStem: 123 100<37 41 201 325 485 723> 512 100<245 285>
LayerCount: 2
Fore
SplineSet
123 37 m 2
 123 723 l 2
 123 750 146 773 173 773 c 0
 200 773 223 751 223 723 c 2
 223 485 l 1
 263 517 312 539 370 539 c 0
 389 539 410 536 431 531 c 0
 541 505 609 415 612 287 c 0
 612 123 542 -16 384 -16 c 0
 375 -16 366 -16 357 -15 c 0
 306 -10 261 11 223 41 c 1
 223 37 l 2
 223 9 200 -13 173 -13 c 0
 146 -13 123 10 123 37 c 2
223 201 m 1
 248 142 309 83 378 83 c 0
 401 83 425 90 449 105 c 0
 498 139 512 205 512 285 c 0
 510 362 459 442 382 442 c 0
 364 442 345 437 325 428 c 0
 280 408 245 369 223 325 c 1
 223 201 l 1
EndSplineSet
EndChar

StartChar: c
Encoding: 99 99 100
Width: 603
GlyphClass: 2
Flags: HMW
HStem: -18 100<294.5 310 259.5 355> 438 100<307.5 317 235 335>
VStem: 96 100<227 307 227 349.5> 397 98
LayerCount: 2
Fore
SplineSet
96 274 m 0
 96 425 160 538 310 538 c 0
 324 538 339 537 355 535 c 0
 419 528 474 490 489 429 c 1
 489 417 l 2
 489 389 468 367 440 367 c 0
 416 367 397 384 392 406 c 0
 383 429 351 438 319 438 c 0
 296 438 273 433 256 426 c 0
 210 404 196 340 196 274 c 0
 196 180 214 82 305 82 c 0
 315 82 327 83 339 86 c 0
 366 92 391 109 397 137 c 0
 404 157 421 176 446 176 c 0
 473 176 495 153 495 126 c 2
 495 114 l 1
 476 38 399 -18 311 -18 c 0
 278 -18 244 -10 211 7 c 0
 128 54 96 147 96 274 c 0
EndSplineSet
EndChar

StartChar: d
Encoding: 100 100 101
Width: 707
GlyphClass: 2
Flags: HMW
HStem: -15 96<321 330 278 359.5> 440 99<321 360 321 362.5> 753 20G<517.5 544.5>
VStem: 93 100<222.5 302 222.5 337.5> 481 100<200 328 328 328 485 723>
LayerCount: 2
Fore
SplineSet
93 269 m 0
 93 406 160 501 273 531 c 0
 292 537 312 539 330 539 c 0
 390 539 444 513 481 485 c 1
 481 723 l 2
 481 750 504 773 531 773 c 0
 558 773 581 751 581 723 c 2
 581 36 l 2
 581 8 558 -13 531 -13 c 0
 505 -13 482 9 481 36 c 1
 440 5 389 -15 330 -15 c 0
 312 -15 292 -13 273 -9 c 0
 152 20 93 125 93 269 c 0
193 269 m 0
 193 176 235 81 321 81 c 0
 339 81 359 85 380 94 c 0
 425 113 465 151 481 200 c 1
 481 328 l 1
 455 382 396 440 329 440 c 0
 305 440 280 432 255 415 c 0
 210 386 193 335 193 269 c 0
EndSplineSet
EndChar

StartChar: e
Encoding: 101 101 102
Width: 666
GlyphClass: 2
Flags: HMW
HStem: -15 99<334 350.5 297.5 391> 236 100<201 458 201 516 196 458> 444 100<329 335 335 374.5>
VStem: 94 420<41 348.5>
LayerCount: 2
Fore
SplineSet
94 274 m 0
 94 423 179 541 329 544 c 2
 335 544 l 2
 487 544 566 434 566 286 c 0
 566 259 543 236 516 236 c 2
 196 236 l 1
 205 146 250 84 345 84 c 0
 356 84 367 84 379 86 c 0
 400 91 416 97 429 110 c 0
 438 119 450 124 463 124 c 0
 491 124 514 102 514 74 c 0
 514 8 430 -15 352 -15 c 0
 316 -15 282 -10 257 -2 c 0
 150 34 94 137 94 274 c 0
201 336 m 1
 458 336 l 1
 444 404 418 444 331 444 c 0
 260 444 218 398 201 336 c 1
EndSplineSet
EndChar

StartChar: f
Encoding: 102 102 103
Width: 607
GlyphClass: 2
Flags: HMW
HStem: 433 100<115 239 129 239 339 461> 670 100<431.5 471.5>
VStem: 239 100<433 433 533 542>
LayerCount: 2
Fore
SplineSet
79 483 m 0
 79 510 102 533 129 533 c 2
 239 533 l 1
 239 542 l 2
 239 692 309 770 458 770 c 0
 485 770 508 747 508 720 c 0
 508 693 485 670 458 670 c 0
 405 670 355 652 343 609 c 0
 339 596 339 564 339 542 c 2
 339 533 l 1
 461 533 l 2
 487 533 511 510 511 483 c 0
 511 456 488 433 461 433 c 2
 339 433 l 1
 345 37 l 2
 345 10 322 -13 295 -13 c 0
 268 -13 245 9 245 37 c 2
 239 433 l 1
 129 433 l 2
 101 433 79 456 79 483 c 0
EndSplineSet
EndChar

StartChar: g
Encoding: 103 103 104
Width: 686
GlyphClass: 2
Flags: HMW
HStem: -190 100<324 338 338 366.5 324 407> 19 100<269 343> 439 100<275 322 322 323 244 335>
VStem: 92 100<230 317 230 345> 463 100<27 486 61 74 74 74 234 317 317 317>
LayerCount: 2
Fore
SplineSet
92 269 m 0
 92 421 169 539 319 539 c 0
 327 539 335 539 343 538 c 0
 391 534 431 516 463 490 c 1
 465 515 488 536 513 536 c 0
 540 536 563 513 563 486 c 2
 563 61 l 2
 565 46 566 31 566 17 c 0
 566 -110 476 -190 338 -190 c 0
 237 -190 164 -172 133 -100 c 0
 130 -94 129 -87 129 -80 c 0
 129 -52 152 -30 179 -30 c 0
 218 -30 219 -68 245 -80 c 0
 263 -89 297 -90 324 -90 c 2
 338 -90 l 2
 395 -90 435 -78 453 -37 c 0
 462 -17 463 5 463 27 c 2
 463 49 l 1
 463 74 l 1
 424 41 376 19 310 19 c 0
 170 19 92 133 92 269 c 0
192 269 m 0
 192 191 228 119 310 119 c 0
 392 119 431 181 463 234 c 1
 463 317 l 1
 443 372 404 434 335 439 c 1
 322 439 l 2
 228 439 192 365 192 269 c 0
EndSplineSet
EndChar

StartChar: h
Encoding: 104 104 105
Width: 653
GlyphClass: 2
Flags: HMW
HStem: 439 100<333.5 399.5> 753 20G<159.5 186.5>
VStem: 123 100<37 328 489 723> 437 100<37 286>
LayerCount: 2
Fore
SplineSet
123 37 m 2
 123 723 l 2
 123 751 146 773 173 773 c 0
 200 773 223 750 223 723 c 2
 223 489 l 1
 258 518 303 539 364 539 c 0
 448 539 507 484 527 413 c 0
 537 376 537 329 537 286 c 2
 537 37 l 2
 537 10 514 -13 487 -13 c 0
 460 -13 437 10 437 37 c 2
 437 286 l 1
 437 298 l 2
 437 370 435 439 364 439 c 0
 289 439 251 380 223 328 c 1
 223 37 l 2
 223 10 200 -13 173 -13 c 0
 146 -13 123 9 123 37 c 2
EndSplineSet
EndChar

StartChar: i
Encoding: 105 105 106
Width: 487
GlyphClass: 2
Flags: HMW
HStem: 424 100<118.5 312 132 262> 627 146<256.5 315 270 315>
VStem: 82 280<460.5 474> 220 145<677 723 663 737> 262 100<37 424 424 424>
LayerCount: 2
Fore
SplineSet
82 474 m 0xe0
 82 501 104 524 132 524 c 2
 312 524 l 2
 340 524 362 502 362 474 c 2xe0
 362 37 l 2
 362 9 339 -13 312 -13 c 0
 285 -13 262 10 262 37 c 2
 262 424 l 1xc8
 132 424 l 2
 105 424 82 447 82 474 c 0xe0
220 677 m 2xd0
 220 723 l 2
 220 751 243 773 270 773 c 2
 315 773 l 2
 342 773 365 751 365 723 c 2
 365 677 l 2
 365 649 342 627 315 627 c 2
 270 627 l 2
 243 627 220 649 220 677 c 2xd0
EndSplineSet
EndChar

StartChar: j
Encoding: 106 106 107
Width: 477
GlyphClass: 2
Flags: HMW
HStem: -183 104<98 149> 424 100<141.5 301 155 251> 627 146<250.5 309 264 309>
VStem: 105 246<460.5 474> 214 145<677 723 663 737> 251 100<57 424 424 424>
LayerCount: 2
Fore
SplineSet
48 -129 m 0xe4
 48 -101 70 -79 98 -79 c 2
 103 -79 l 2
 119 -81 133 -81 149 -81 c 2
 149 -81 196 -79 196 -79 c 2
 214 -79 235 -50 241 -36 c 0
 251 -15 251 25 251 57 c 2
 251 424 l 1xe4
 155 424 l 2
 128 424 105 447 105 474 c 0
 105 501 127 524 155 524 c 2
 301 524 l 2
 329 524 351 501 351 474 c 2xf0
 351 57 l 2
 351 11 351 -38 332 -79 c 0
 310 -123 262 -173 206 -178 c 0
 185 -180 161 -183 137 -183 c 0
 91 -183 48 -173 48 -129 c 0xe4
214 677 m 2xe8
 214 723 l 2
 214 751 237 773 264 773 c 2
 309 773 l 2
 336 773 359 751 359 723 c 2
 359 677 l 2
 359 649 336 627 309 627 c 2
 264 627 l 2
 237 627 214 649 214 677 c 2xe8
EndSplineSet
EndChar

StartChar: k
Encoding: 107 107 108
Width: 627
GlyphClass: 2
Flags: HMW
HStem: 516 20G<449.5 469.5> 753 20G<159.5 186.5>
VStem: 123 100<37 244 344 723>
LayerCount: 2
Fore
SplineSet
123 37 m 2
 123 723 l 2
 123 751 146 773 173 773 c 0
 200 773 223 750 223 723 c 2
 223 344 l 1
 226 344 l 1
 422 521 l 2
 431 530 443 536 456 536 c 0
 483 536 506 513 506 486 c 0
 506 472 500 459 490 450 c 2
 318 292 l 1
 524 71 l 2
 532 62 537 50 537 37 c 0
 537 10 514 -13 487 -13 c 0
 474 -13 460 -8 451 2 c 2
 226 244 l 1
 223 244 l 1
 223 37 l 2
 223 10 200 -13 173 -13 c 0
 146 -13 123 9 123 37 c 2
EndSplineSet
EndChar

StartChar: l
Encoding: 108 108 109
Width: 499
GlyphClass: 2
Flags: HMW
HStem: -7 100<353 379.5 353 379.5> 753 20G<155 182.5>
VStem: 113 99<192.5 228> 119 100<722 736>
LayerCount: 2
Fore
SplineSet
113 228 m 2xe0
 119 722 l 2
 119 750 141 773 169 773 c 0
 196 773 219 750 219 722 c 2xd0
 212 228 l 2
 212 157 223 104 288 95 c 0
 302 93 340 93 366 93 c 0
 393 93 416 70 416 43 c 0
 416 16 393 -7 366 -7 c 0
 264 -7 198 2 155 61 c 0
 119 105 113 157 113 228 c 2xe0
EndSplineSet
EndChar

StartChar: m
Encoding: 109 109 110
Width: 738
GlyphClass: 2
Flags: HMW
HStem: 439 100<272.5 299 468 499>
VStem: 118 100<37 315> 318 100<37 315> 518 100<37 396 396 396>
CounterMasks: 1 70
LayerCount: 2
Fore
SplineSet
118 37 m 2
 118 486 l 2
 118 514 141 536 168 536 c 0
 185 536 200 527 209 513 c 1
 231 529 257 539 288 539 c 0
 329 539 364 520 387 492 c 1
 413 520 448 539 488 539 c 0
 564 539 618 474 618 404 c 2
 618 37 l 2
 618 10 595 -13 568 -13 c 0
 541 -13 518 9 518 37 c 2
 518 396 l 2
 517 414 510 439 488 439 c 0
 445 439 418 355 418 315 c 2
 418 37 l 2
 418 10 395 -13 368 -13 c 0
 341 -13 318 9 318 37 c 2
 318 396 l 2
 317 414 310 439 288 439 c 0
 244 439 221 354 218 315 c 2
 218 37 l 2
 218 10 195 -13 168 -13 c 0
 141 -13 118 9 118 37 c 2
EndSplineSet
EndChar

StartChar: n
Encoding: 110 110 111
Width: 705
GlyphClass: 2
Flags: HMW
HStem: 439 100<348 427.5>
VStem: 118 100<37 304 477 486> 490 100<37 286>
LayerCount: 2
Fore
SplineSet
118 37 m 2
 118 486 l 2
 118 513 141 535 168 535 c 0
 195 535 218 513 218 486 c 2
 218 477 l 1
 260 514 314 539 382 539 c 0
 532 539 590 435 590 286 c 2
 590 37 l 2
 590 10 566 -13 540 -13 c 0
 513 -13 490 9 490 37 c 2
 490 286 l 2
 490 376 473 439 382 439 c 0
 297 439 243 368 218 304 c 1
 218 37 l 2
 218 10 195 -13 168 -13 c 0
 141 -13 118 10 118 37 c 2
EndSplineSet
EndChar

StartChar: o
Encoding: 111 111 112
Width: 697
GlyphClass: 2
Flags: HMW
HStem: -16 100<291.5 394.5 291.5 423> 444 100<292 393.5>
VStem: 93 100<213.5 312.5 213.5 342> 493 100<213.5 313>
LayerCount: 2
Fore
SplineSet
93 263 m 0
 93 421 180 544 343 544 c 0
 501 544 593 421 593 263 c 0
 593 107 503 -16 343 -16 c 0
 182 -16 93 105 93 263 c 0
193 263 m 0
 193 164 240 84 343 84 c 0
 446 84 493 164 493 263 c 0
 493 363 444 444 343 444 c 0
 241 444 193 362 193 263 c 0
EndSplineSet
EndChar

StartChar: p
Encoding: 112 112 113
Width: 711
GlyphClass: 2
Flags: HMW
HStem: -184 21G<154 182> -16 100<354 370.5 326.5 371 354 354> 440 99<371 373 334.5 422.5>
VStem: 118 100<-134 38 207 324 486 499.5> 507 100<214.5 305.5>
LayerCount: 2
Fore
SplineSet
118 -134 m 2
 118 486 l 2
 118 513 141 536 168 536 c 0
 195 536 218 514 218 486 c 1
 257 518 306 539 363 539 c 0
 383 539 403 536 425 531 c 0
 548 502 607 402 607 257 c 0
 607 105 525 -16 371 -16 c 2
 354 -16 l 2
 301 -13 255 8 218 38 c 1
 218 -134 l 2
 218 -162 196 -184 168 -184 c 0
 140 -184 118 -161 118 -134 c 2
218 207 m 1
 245 153 288 84 365 84 c 0
 376 84 389 86 402 89 c 0
 475 108 507 172 507 257 c 0
 507 354 472 440 373 440 c 0
 369 440 365 439 360 439 c 0
 292 434 243 376 218 324 c 1
 218 207 l 1
EndSplineSet
EndChar

StartChar: q
Encoding: 113 113 114
Width: 705
GlyphClass: 2
Flags: HMW
HStem: -184 21G<518 546> -15 98<323 332.5 282 362> 439 100<327 364>
VStem: 94 100<212 291 212 329.5> 482 100<-134 38 38 38 203 322 322 322>
LayerCount: 2
Fore
SplineSet
94 257 m 0
 94 402 152 502 275 531 c 0
 297 536 317 539 337 539 c 0
 394 539 443 518 482 486 c 1
 482 513 505 536 532 536 c 0
 559 536 582 514 582 486 c 2
 582 -134 l 2
 582 -162 560 -184 532 -184 c 0
 504 -184 482 -161 482 -134 c 2
 482 38 l 1
 442 6 392 -15 332 -15 c 0
 314 -15 295 -13 275 -9 c 0
 159 19 94 118 94 257 c 0
194 257 m 0
 194 167 240 83 324 83 c 0
 341 83 361 86 381 94 c 0
 427 114 463 157 482 203 c 1
 482 322 l 1
 456 378 399 439 329 439 c 0
 306 439 281 433 256 417 c 0
 208 389 194 325 194 257 c 0
EndSplineSet
EndChar

StartChar: r
Encoding: 114 114 115
Width: 612
GlyphClass: 2
Flags: HMW
HStem: 439 100<359.5 365.5>
VStem: 118 100<37 261 486 499.5> 410 100<387 399>
LayerCount: 2
Fore
SplineSet
118 37 m 2
 118 486 l 2
 118 513 141 535 168 535 c 0
 196 535 218 514 218 486 c 1
 255 519 303 539 363 539 c 0
 451 539 509 476 510 401 c 0
 510 373 487 350 460 350 c 0
 433 350 410 372 410 399 c 0
 409 417 397 432 379 436 c 0
 374 436 368 439 363 439 c 0
 356 439 349 436 342 436 c 0
 262 425 218 336 218 261 c 2
 218 37 l 2
 218 9 195 -13 168 -13 c 0
 141 -13 118 10 118 37 c 2
EndSplineSet
EndChar

StartChar: s
Encoding: 115 115 116
Width: 636
GlyphClass: 2
Flags: HMW
HStem: -16 100<297 304 304 314> 444 100<291 345 314 340>
VStem: 110 100<370 414.5 370 445> 430 100<121.5 167.5>
LayerCount: 2
Fore
SplineSet
104 97 m 0
 104 125 127 147 154 147 c 0
 190 147 199 110 223 97 c 0
 248 85 280 84 314 84 c 0
 365 87 430 94 430 149 c 0
 430 186 388 196 358 204 c 0
 248 233 110 250 110 389 c 0
 110 501 207 544 314 544 c 2
 345 544 l 1
 418 540 490 504 508 436 c 0
 509 431 510 427 510 423 c 0
 510 396 487 373 460 373 c 0
 436 373 416 389 411 410 c 0
 404 438 370 442 340 444 c 2
 314 444 l 2
 268 444 210 440 210 389 c 0
 210 351 241 338 271 330 c 0
 382 301 530 288 530 149 c 0
 530 31 429 -13 314 -16 c 2
 304 -16 l 2
 211 -16 147 11 110 71 c 0
 105 79 104 88 104 97 c 0
EndSplineSet
EndChar

StartChar: t
Encoding: 116 116 117
Width: 613
GlyphClass: 2
Flags: HMW
HStem: -13 100<363 372 337.5 409> 427 100<117.5 208 131 206 308 457 131 306>
VStem: 203 100<189 199 165.5 201 165.5 201> 208 100<527 527>
LayerCount: 2
Fore
SplineSet
81 477 m 0xe0
 81 504 104 527 131 527 c 2
 208 527 l 1
 210 628 l 2
 210 657 232 678 260 678 c 0
 288 678 310 655 310 628 c 2
 308 527 l 1xd0
 457 527 l 2
 484 527 507 504 507 477 c 0
 507 450 484 427 457 427 c 2
 306 427 l 1
 303 199 l 2
 303 132 303 87 372 87 c 0
 394 88 416 93 435 102 c 0
 442 105 449 107 457 107 c 0
 484 107 507 84 507 57 c 0
 507 6 440 -13 378 -13 c 0
 348 -13 318 -8 299 -1 c 0
 226 27 203 94 203 189 c 2
 203 201 l 1
 206 427 l 1
 131 427 l 2
 104 427 81 450 81 477 c 0xe0
EndSplineSet
EndChar

StartChar: u
Encoding: 117 117 118
Width: 702
GlyphClass: 2
Flags: HMW
HStem: -16 100<316 321 321 349> 516 20G<144 170.5 516.5 543>
VStem: 108 100<257 486> 480 100<37 45 45 45 227 486>
LayerCount: 2
Fore
SplineSet
108 257 m 2
 108 486 l 2
 108 512 131 536 157 536 c 0
 184 536 208 513 208 486 c 2
 208 257 l 2
 208 152 219 87 316 84 c 2
 321 84 l 2
 408 84 457 159 480 227 c 1
 480 486 l 2
 480 514 503 536 530 536 c 0
 556 536 580 513 580 486 c 2
 580 37 l 2
 580 10 556 -13 530 -13 c 0
 503 -13 480 9 480 37 c 2
 480 45 l 1
 438 8 384 -16 314 -16 c 0
 209 -12 143 44 118 130 c 0
 108 168 108 214 108 257 c 2
EndSplineSet
EndChar

StartChar: v
Encoding: 118 118 119
Width: 680
GlyphClass: 2
Flags: HMW
HStem: 516 20G<123.5 148.5 520.5 544.5>
LayerCount: 2
Fore
SplineSet
87 486 m 0
 87 514 110 536 137 536 c 0
 160 536 177 521 184 502 c 2
 332 87 l 1
 336 87 l 1
 484 502 l 2
 489 520 510 536 531 536 c 0
 558 536 581 513 581 486 c 0
 581 480 580 474 578 469 c 2
 418 20 l 2
 413 2 391 -13 371 -13 c 2
 297 -13 l 2
 276 -13 257 1 250 20 c 2
 90 469 l 2
 88 474 87 480 87 486 c 0
EndSplineSet
EndChar

StartChar: w
Encoding: 119 119 120
Width: 701
GlyphClass: 2
Flags: HMW
HStem: 516 20G<134.5 160.5 529 555>
VStem: 97 100<492 492 492 499.5> 492 101<486 492>
LayerCount: 2
Fore
SplineSet
97 486 m 2
 97 513 121 536 148 536 c 0
 173 536 195 516 197 492 c 2
 237 168 l 1
 274 294 l 2
 279 314 299 330 322 330 c 2
 368 330 l 2
 392 330 410 314 416 294 c 2
 453 168 l 1
 492 492 l 2
 496 515 516 536 542 536 c 0
 568 536 593 514 593 490 c 2
 593 486 l 1
 537 31 l 2
 535 7 513 -13 488 -13 c 2
 439 -13 l 2
 415 -13 397 3 391 22 c 2
 345 181 l 1
 299 22 l 2
 292 3 275 -13 252 -13 c 2
 202 -13 l 2
 176 -13 155 8 152 31 c 2
 97 486 l 2
EndSplineSet
EndChar

StartChar: x
Encoding: 120 120 121
Width: 632
GlyphClass: 2
Flags: HMW
HStem: 516 20G<148.5 168.5 463.5 483.5>
LayerCount: 2
Fore
SplineSet
100 37 m 0
 100 47 103 57 109 66 c 2
 249 266 l 1
 120 458 l 2
 115 466 112 476 112 486 c 0
 112 514 135 536 162 536 c 0
 175 536 191 532 198 522 c 2
 316 347 l 1
 434 522 l 2
 443 531 457 536 470 536 c 0
 497 536 520 513 520 486 c 0
 520 476 517 466 512 458 c 2
 382 266 l 1
 522 66 l 2
 528 57 532 47 532 37 c 0
 532 10 508 -13 482 -13 c 0
 468 -13 454 -11 445 1 c 2
 316 186 l 1
 186 1 l 2
 177 -9 163 -13 150 -13 c 0
 123 -13 100 10 100 37 c 0
EndSplineSet
EndChar

StartChar: y
Encoding: 121 121 122
Width: 681
GlyphClass: 2
Flags: HMW
HStem: -183 102<146.5 150 150 155 134 176> 516 20G<120.5 140.5 527.5 547.5>
LayerCount: 2
Fore
SplineSet
84 -131 m 0
 84 -103 107 -81 134 -81 c 2
 150 -81 l 2
 160 -81 169 -80 175 -68 c 2
 283 130 l 1
 91 461 l 2
 86 468 84 477 84 486 c 0
 84 514 107 536 134 536 c 0
 147 536 161 531 170 522 c 2
 339 232 l 1
 496 522 l 1
 506 531 521 536 534 536 c 0
 561 536 584 513 584 486 c 0
 584 477 582 468 578 461 c 2
 263 -115 l 2
 245 -152 201 -183 151 -183 c 0
 142 -183 132 -182 123 -180 c 0
 101 -175 84 -156 84 -131 c 0
EndSplineSet
EndChar

StartChar: z
Encoding: 122 122 123
Width: 645
GlyphClass: 2
Flags: HMW
HStem: -1 100<142 496 237 496 237 496> 424 100<151.5 473 165 397>
LayerCount: 2
Fore
SplineSet
106 49 m 2
 106 84 l 2
 106 96 111 107 119 116 c 2
 397 424 l 1
 165 424 l 2
 138 424 115 446 115 474 c 0
 115 502 137 524 165 524 c 2
 473 524 l 2
 501 524 523 502 523 474 c 2
 523 434 l 2
 523 422 518 410 509 401 c 2
 237 99 l 1
 496 99 l 2
 523 99 546 76 546 49 c 0
 546 22 524 -1 496 -1 c 2
 156 -1 l 2
 128 -1 106 22 106 49 c 2
EndSplineSet
EndChar

StartChar: braceleft
Encoding: 123 123 124
Width: 669
GlyphClass: 2
Flags: HMW
HStem: -13 100<510 547.5 510 547.5> 330 100<120.5 152> 673 100<476 498 498 534>
VStem: 255 100<199.5 243 527.5 559.5>
LayerCount: 2
Fore
SplineSet
84 379 m 0
 84 407 107 430 134 430 c 0
 172 430 217 430 239 455 c 0
 255 475 255 512 255 543 c 0
 255 598 261 654 294 698 c 0
 343 766 418 773 534 773 c 0
 561 773 584 750 584 723 c 0
 584 696 562 673 534 673 c 2
 498 673 l 2
 442 673 396 670 374 639 c 0
 355 614 355 576 355 543 c 0
 355 486 348 412 304 379 c 1
 343 340 355 283 355 229 c 0
 355 170 357 123 394 100 c 0
 415 87 486 87 534 87 c 0
 561 87 584 64 584 37 c 0
 584 10 561 -13 534 -13 c 0
 468 -13 387 -13 342 15 c 0
 276 53 255 131 255 229 c 0
 255 257 254 287 234 308 c 0
 212 330 170 330 134 330 c 0
 107 330 84 351 84 379 c 0
EndSplineSet
EndChar

StartChar: bar
Encoding: 124 124 125
Width: 350
GlyphClass: 2
Flags: HMW
HStem: 753 20G<161.5 188.5>
VStem: 125 100<-111 723>
LayerCount: 2
Fore
SplineSet
125 -111 m 2
 125 723 l 2
 125 751 148 773 175 773 c 0
 202 773 225 750 225 723 c 2
 225 -111 l 2
 225 -138 203 -161 175 -161 c 0
 147 -161 125 -139 125 -111 c 2
EndSplineSet
Substitution2: "'ss04' Style Set 4 in Latin lookup 4 subtable" bar.alt
AlternateSubs2: "'aalt' Access All Alternates in Latin lookup 0 subtable" bar bar.alt
EndChar

StartChar: braceright
Encoding: 125 125 126
Width: 662
GlyphClass: 2
Flags: HMW
HStem: -13 100<136 169 136 169> 330 100<532 536 536 549.5> 673 100<122.5 155.5>
VStem: 314 100<212.5 243 179.5 256 527.5 570.5>
LayerCount: 2
Fore
SplineSet
86 37 m 0
 86 65 109 87 136 87 c 2
 169 87 l 2
 236 87 285 90 304 134 c 0
 314 158 314 196 314 229 c 0
 314 283 326 340 365 379 c 1
 321 412 314 488 314 543 c 0
 314 605 304 651 253 666 c 0
 232 673 175 673 136 673 c 0
 108 673 86 695 86 723 c 0
 86 751 109 773 136 773 c 0
 251 773 327 765 376 698 c 0
 409 654 414 598 414 543 c 0
 414 512 414 475 431 455 c 0
 452 430 495 430 532 430 c 2
 536 430 l 2
 563 430 586 406 586 379 c 0
 586 352 563 330 536 330 c 0
 500 330 458 330 436 308 c 0
 415 287 414 257 414 229 c 0
 414 130 393 54 328 15 c 0
 283 -13 202 -13 136 -13 c 0
 109 -13 86 9 86 37 c 0
EndSplineSet
EndChar

StartChar: tilde
Encoding: 732 732 127
Width: 723
GlyphClass: 2
Flags: MW
HStem: 535 101<455.5 473 453.5 491.5> 621 101<253 270.5 234.5 272.5> 690 20G<537.5 562>
VStem: 127 99 500 99
LayerCount: 2
Fore
SplineSet
127 597 m 2x58
 127 607 l 1
 141 674 201 722 268 722 c 0x58
 273 722 277 721 282 721 c 0
 323 717 360 694 393 668 c 0
 412 654 442 636 465 636 c 0
 481 636 494 645 500 670 c 0
 502 693 526 710 549 710 c 0
 575 710 599 687 599 660 c 0
 599 657 598 653 597 650 c 0
 584 583 525 535 458 535 c 0xb8
 453 535 449 536 444 536 c 0
 402 540 366 563 333 589 c 0
 314 603 284 621 261 621 c 0
 245 621 232 612 226 587 c 0
 222 565 201 547 177 547 c 0
 150 547 127 570 127 597 c 2x58
EndSplineSet
Validated: 1
EndChar

StartChar: dieresis
Encoding: 168 168 128
Width: 723
GlyphClass: 2
Flags: MW
HStem: 273 157<263.5 290.5 263.5 291 435.5 462>
VStem: 227 100<323 380 309.5 393.5> 399 100<323 380 309.5 394>
LayerCount: 2
Fore
SplineSet
227 323 m 2
 227 380 l 2
 227 407 250 430 277 430 c 0
 304 430 327 407 327 380 c 2
 327 323 l 2
 327 296 305 273 277 273 c 0
 249 273 227 296 227 323 c 2
399 323 m 2
 399 380 l 2
 399 408 422 430 449 430 c 0
 475 430 499 407 499 380 c 2
 499 323 l 2
 499 296 476 273 449 273 c 0
 421 273 399 295 399 323 c 2
EndSplineSet
Validated: 1
EndChar

StartChar: adieresis
Encoding: 228 228 129
Width: 723
GlyphClass: 2
Flags: MW
HStem: -16 100<309 316 302 317> 242 97 444 100<343 378> 559 157<263.5 290.5 435.5 462>
VStem: 127 100<132.5 191.5 132.5 240> 227 100<608 666 595 679.5> 399 100<608 666 595 680> 476 100<37 45 45 45 200 240 240 240>
LayerCount: 2
Fore
SplineSet
127 154 m 0xf9
 127 326 302 338 476 339 c 1
 473 369 468 400 446 420 c 0
 424 441 393 444 363 444 c 0
 323 444 285 431 254 406 c 0
 245 399 234 396 223 396 c 0
 195 396 173 418 173 446 c 0
 173 460 180 479 192 485 c 0
 241 523 301 544 363 544 c 0
 418 544 474 531 514 494 c 0
 554 456 576 402 576 347 c 2
 576 37 l 2
 576 10 553 -13 526 -13 c 0
 499 -13 476 9 476 37 c 2
 476 45 l 1
 433 10 380 -16 316 -16 c 2
 302 -16 l 1
 218 -9 127 54 127 154 c 0xf9
227 154 m 0
 227 111 275 86 309 84 c 2
 317 84 l 2
 392 84 444 148 476 200 c 1
 476 240 l 1
 454 241 431 242 407 242 c 0
 317 242 227 229 227 154 c 0
227 608 m 2xf4
 227 666 l 2
 227 693 250 716 277 716 c 0
 304 716 327 693 327 666 c 2
 327 608 l 2
 327 582 304 559 277 559 c 0
 250 559 227 582 227 608 c 2xf4
399 608 m 2xf2
 399 666 l 2
 399 694 422 716 449 716 c 0
 475 716 499 693 499 666 c 2
 499 608 l 2
 499 582 476 559 449 559 c 0
 421 559 399 581 399 608 c 2xf2
EndSplineSet
Validated: 1
EndChar

StartChar: odieresis
Encoding: 246 246 130
Width: 723
GlyphClass: 2
Flags: MW
HStem: -16 100<311.5 414.5 311.5 443> 444 100<312 413.5> 559 157<263.5 290.5 435 461>
VStem: 113 100<213.5 312.5 213.5 342> 227 100<608 666 595 679.5> 398 101<608 666 594.5 679.5> 513 100<213.5 313>
LayerCount: 2
Fore
SplineSet
113 263 m 0
 113 421 200 544 363 544 c 0
 521 544 613 421 613 263 c 0
 613 107 523 -16 363 -16 c 0
 202 -16 113 105 113 263 c 0
213 263 m 0
 213 164 260 84 363 84 c 0
 466 84 513 164 513 263 c 0
 513 363 464 444 363 444 c 0
 261 444 213 362 213 263 c 0
227 608 m 2
 227 666 l 2
 227 693 250 716 277 716 c 0
 304 716 327 693 327 666 c 2
 327 608 l 2
 327 582 304 559 277 559 c 0
 250 559 227 582 227 608 c 2
398 608 m 2
 398 666 l 2
 398 693 422 716 448 716 c 0
 474 716 499 693 499 666 c 2
 499 608 l 2
 499 581 475 559 448 559 c 0
 421 559 398 582 398 608 c 2
EndSplineSet
Validated: 1
EndChar

StartChar: udieresis
Encoding: 252 252 131
Width: 723
GlyphClass: 2
Flags: MW
HStem: -16 100<335 340 340 368> 516 20G<163 189.5 535.5 562> 559 157<263.5 290.5 435.5 462>
VStem: 127 100<257 486> 227 100<608 666 595 679.5> 399 100<608 666> 499 100<37 45 45 45 227 486>
LayerCount: 2
Fore
SplineSet
127 257 m 2xf2
 127 486 l 2
 127 512 150 536 176 536 c 0
 203 536 227 513 227 486 c 2
 227 257 l 2
 227 152 238 87 335 84 c 2
 340 84 l 2
 427 84 476 159 499 227 c 1
 499 486 l 2
 499 514 522 536 549 536 c 0
 575 536 599 513 599 486 c 2
 599 37 l 2
 599 10 575 -13 549 -13 c 0
 522 -13 499 9 499 37 c 2
 499 45 l 1
 457 8 403 -16 333 -16 c 0
 228 -12 162 44 137 130 c 0
 127 168 127 214 127 257 c 2xf2
227 608 m 2xe8
 227 666 l 2
 227 693 250 716 277 716 c 0
 304 716 327 693 327 666 c 2
 327 608 l 2
 327 582 304 559 277 559 c 0
 250 559 227 582 227 608 c 2xe8
399 608 m 2xe4
 399 666 l 2
 399 694 422 716 449 716 c 0
 475 716 499 693 499 666 c 2
 499 608 l 2
 499 582 476 559 449 559 c 0
 421 559 399 581 399 608 c 2xe4
EndSplineSet
Validated: 1
EndChar

StartChar: Adieresis
Encoding: 196 196 132
Width: 723
GlyphClass: 2
Flags: MW
HStem: 143 101<447 478> 152 99<251 280> 616 157<149.5 176.5 149.5 177 549.5 576.5> 693 20G<351 374 374 386>
VStem: 113 100<666 723> 513 100<666 723 652.5 737>
LayerCount: 2
Fore
SplineSet
113 666 m 2x2c
 113 723 l 2
 113 751 136 773 163 773 c 0
 190 773 213 750 213 723 c 2
 213 666 l 2
 213 639 191 616 163 616 c 0
 135 616 113 638 113 666 c 2x2c
116 40 m 0
 116 45 116 50 118 54 c 2
 304 680 l 2
 311 698 327 713 351 713 c 2
 374 713 l 2
 398 713 416 695 422 677 c 2
 608 54 l 2
 609 50 610 45 610 40 c 0
 610 13 587 -10 560 -10 c 0
 538 -10 518 6 513 26 c 2
 478 143 l 1x9c
 251 152 l 1x4c
 213 26 l 2
 206 6 190 -10 166 -10 c 0
 139 -10 116 12 116 40 c 0
280 251 m 1x4c
 447 244 l 1x8c
 363 526 l 1
 280 251 l 1x4c
513 666 m 2
 513 723 l 2
 513 751 536 773 563 773 c 0
 590 773 613 750 613 723 c 2
 613 666 l 2
 613 639 591 616 563 616 c 0x2c
 535 616 513 638 513 666 c 2
EndSplineSet
Validated: 1
EndChar

StartChar: Odieresis
Encoding: 214 214 133
Width: 723
GlyphClass: 2
Flags: MW
HStem: -13 100<354 387.5> 519 99<351.5 414.5> 616 157<149.5 176.5 149.5 177 549.5 576.5>
VStem: 113 100<666 723 652.5 737> 121 100<256.5 354 256.5 376.5> 504 100<251 354> 513 100<666 723 652.5 737>
LayerCount: 2
Fore
SplineSet
113 666 m 2xb0
 113 723 l 2
 113 751 136 773 163 773 c 0
 190 773 213 750 213 723 c 2
 213 666 l 2
 213 639 191 616 163 616 c 0
 135 616 113 638 113 666 c 2xb0
121 303 m 0xcc
 121 450 184 568 295 607 c 0
 317 615 340 618 363 618 c 0
 528 618 604 467 604 303 c 0
 604 181 565 92 497 35 c 0
 459 5 412 -13 363 -13 c 0
 304 -13 262 9 229 35 c 0
 160 90 121 183 121 303 c 0xcc
221 303 m 0
 221 210 249 132 314 99 c 0
 330 95 345 87 363 87 c 0
 465 87 504 199 504 303 c 0
 504 405 466 519 363 519 c 0
 260 519 221 405 221 303 c 0
513 666 m 2xa2
 513 723 l 2
 513 751 536 773 563 773 c 0
 590 773 613 750 613 723 c 2
 613 666 l 2
 613 639 591 616 563 616 c 0
 535 616 513 638 513 666 c 2xa2
EndSplineSet
Validated: 1
EndChar

StartChar: Udieresis
Encoding: 220 220 134
Width: 723
GlyphClass: 2
Flags: MW
HStem: -13 100<337 400.5 337 454.5> 673 100<149 213 163 213 511 563>
VStem: 113 100<286 537> 113 151<709 737> 461 152<709.5 736.5> 513 100<286 537>
LayerCount: 2
Fore
SplineSet
113 286 m 2xe4
 113 537 l 2
 113 565 136 587 163 587 c 0
 190 587 213 564 213 537 c 2
 213 286 l 2
 213 231 217 167 243 133 c 0
 267 102 311 87 363 87 c 0
 438 87 488 116 503 178 c 0
 512 213 513 250 513 286 c 2
 513 537 l 2
 513 565 536 587 563 587 c 0
 590 587 613 564 613 537 c 2
 613 286 l 2
 613 102 546 -13 363 -13 c 0
 181 -13 113 101 113 286 c 2xe4
113 723 m 0xd0
 113 751 136 773 163 773 c 2
 213 773 l 2xe0
 241 773 264 751 264 723 c 0xd0
 264 695 242 673 213 673 c 2xe0
 163 673 l 2
 135 673 113 695 113 723 c 0xd0
461 723 m 0xc8
 461 750 484 773 511 773 c 2
 563 773 l 2
 590 773 613 750 613 723 c 0
 613 696 591 673 563 673 c 2
 511 673 l 2
 483 673 461 696 461 723 c 0xc8
EndSplineSet
Validated: 1
EndChar

StartChar: section
Encoding: 167 167 135
Width: 723
GlyphClass: 2
Flags: MW
HStem: -13 100<337.5 374 337.5 374> 673 100<343 388.5>
VStem: 121 100<357.5 400 357.5 411> 130 97 147 100<574.5 625.5 557.5 655> 501 100<133 160 160 165 100.5 202 357 367 367 371>
LayerCount: 2
Fore
SplineSet
121 388 m 0xe4
 121 434 144 473 173 502 c 1
 157 525 147 555 147 594 c 0
 147 716 250 773 374 773 c 0
 475 773 548 727 573 650 c 0
 575 645 576 640 576 634 c 0
 576 608 552 584 526 584 c 0
 479 584 479 635 449 655 c 0
 430 669 403 673 374 673 c 0
 312 673 247 657 247 594 c 0xcc
 247 521 351 530 414 524 c 0
 509 515 598 473 601 371 c 2
 601 367 l 2
 601 327 585 294 562 268 c 1
 586 243 600 210 601 165 c 2
 601 160 l 2
 601 41 492 -10 374 -13 c 0
 249 -13 169 30 133 119 c 0
 131 125 130 130 130 136 c 0
 130 164 152 187 180 187 c 0
 201 187 219 173 227 155 c 0xd4
 248 102 301 87 374 87 c 0
 435 89 501 101 501 165 c 0
 501 239 387 231 322 236 c 0
 223 244 121 281 121 388 c 0xe4
221 388 m 0xe4
 221 327 352 334 407 330 c 0
 428 328 449 324 468 319 c 1
 485 331 501 343 501 371 c 0
 501 415 442 421 403 424 c 0
 353 429 304 434 262 446 c 1
 243 433 221 412 221 388 c 0xe4
EndSplineSet
Validated: 1
EndChar

StartChar: currency
Encoding: 164 164 136
Width: 723
GlyphClass: 2
Flags: MW
HStem: 164 100<342 375.5 331 383.5> 496 100<342 383.5 342 395>
VStem: 147 100<359 400.5> 479 100<368 400.5 359.5 412>
LayerCount: 2
Fore
SplineSet
113 180 m 0
 113 193 118 206 127 215 c 2
 179 267 l 1
 159 300 147 338 147 380 c 0
 147 421 159 460 179 493 c 1
 127 545 l 2
 118 554 113 567 113 580 c 0
 113 608 136 630 163 630 c 0
 176 630 189 625 198 615 c 2
 249 564 l 1
 282 584 321 596 363 596 c 0
 404 596 443 584 476 564 c 1
 527 615 l 2
 537 625 550 630 563 630 c 0
 590 630 613 607 613 580 c 0
 613 567 608 554 598 545 c 2
 546 493 l 1
 566 460 579 421 579 380 c 0
 579 339 567 300 546 267 c 1
 598 215 l 2
 608 206 613 193 613 180 c 0
 613 153 590 130 563 130 c 0
 550 130 537 135 527 145 c 2
 476 196 l 1
 442 175 404 164 363 164 c 0
 321 164 282 176 249 196 c 1
 198 145 l 2
 189 135 176 130 163 130 c 0
 136 130 113 152 113 180 c 0
247 380 m 0
 247 316 299 264 363 264 c 0
 388 264 411 272 431 286 c 1
 439 286 453 308 458 313 c 0
 472 332 479 356 479 380 c 0
 479 444 427 496 363 496 c 0
 299 496 247 444 247 380 c 0
EndSplineSet
Validated: 1
EndChar

StartChar: bar.alt
Encoding: 65540 -1 137
Width: 723
GlyphClass: 2
Flags: MW
VStem: 7 100<-71 643>
LayerCount: 2
Fore
SplineSet
7 -71 m 2
 7 643 l 2
 7 670 30 693 57 693 c 0
 84 693 107 670 107 643 c 2
 107 -71 l 2
 107 -98 85 -121 57 -121 c 0
 29 -121 7 -98 7 -71 c 2
EndSplineSet
Validated: 1
EndChar

StartChar: quotedbl
Encoding: 34 34 138
Width: 723
GlyphClass: 2
Flags: MW
HStem: 450 320<211 224.5 503 516>
VStem: 161 100<493 720> 161 130<500 736.5 724 733.5> 453 98<490 720> 453 123<500 724 720 724 720 734>
LayerCount: 2
Fore
SplineSet
161 500 m 2xc0
 161 720 l 2
 161 747 184 770 211 770 c 2
 240 770 l 2
 267 770 291 748 291 725 c 0xa0
 291 723 290 722 290 720 c 2
 261 493 l 2
 258 471 238 450 211 450 c 0
 185 450 161 474 161 500 c 2xc0
453 500 m 2x90
 453 720 l 2
 453 748 476 770 503 770 c 2
 526 770 l 2
 551 770 576 749 576 724 c 2
 576 720 l 1x88
 551 490 l 2
 546 468 529 450 503 450 c 0
 476 450 453 473 453 500 c 2x90
EndSplineSet
Validated: 1
Substitution2: "'ss02' Style Set 2 in Latin lookup 2 subtable" quotedbl.alt
AlternateSubs2: "'aalt' Access All Alternates in Latin lookup 0 subtable" quotedbl quotedbl.alt
EndChar
